<?xml version="1.0" encoding="utf-8"?>
<!-- Generator: Adobe Illustrator 19.0.0, SVG Export Plug-In . SVG Version: 6.00 Build 0)  -->
<svg version="1.1" id="图层_1" xmlns="http://www.w3.org/2000/svg" xmlns:xlink="http://www.w3.org/1999/xlink" x="0px" y="0px"
	 viewBox="8.9 17 1006.2 990" style="enable-background:new 8.9 17 1006.2 990;" xml:space="preserve">
<style type="text/css">
	.st0{fill-rule:evenodd;clip-rule:evenodd;fill:none;stroke:#F4F4F4;stroke-miterlimit:10;}
	.st1{fill-rule:evenodd;clip-rule:evenodd;fill:#E0E0E0;}
	.st2{fill-rule:evenodd;clip-rule:evenodd;fill:url(#SVGID_1_);}
	.st3{fill-rule:evenodd;clip-rule:evenodd;fill:url(#SVGID_2_);}
	.st4{fill-rule:evenodd;clip-rule:evenodd;fill:#142127;}
	.st5{fill-rule:evenodd;clip-rule:evenodd;fill:url(#SVGID_3_);}
	.st6{fill-rule:evenodd;clip-rule:evenodd;fill:#16242B;}
</style>
<g id="便捷背景">
	<polyline class="st0" points="25.2,224.9 451.6,994 996.2,621.1 645.2,37.8 880.7,815 110.3,566.5 645.2,32.6 207.1,101.6 
		1014.4,621.1 	"/>
	<circle class="st1" cx="207.1" cy="101.6" r="15.6"/>
	<circle class="st1" cx="25.2" cy="224.9" r="15.6"/>
	<circle class="st1" cx="110.3" cy="566.5" r="20.8"/>
	<circle class="st1" cx="451.6" cy="994" r="13"/>
	<circle class="st1" cx="880.7" cy="815" r="15.6"/>
	<circle class="st1" cx="996.2" cy="621.1" r="18.2"/>
	<circle class="st1" cx="645.2" cy="32.6" r="15.6"/>
</g>
<g id="便捷">
	<linearGradient id="SVGID_1_" gradientUnits="userSpaceOnUse" x1="491.2198" y1="760.5701" x2="491.2198" y2="420.4994">
		<stop  offset="0" style="stop-color:#E0E0E0"/>
		<stop  offset="0.4907" style="stop-color:#F4F4F4"/>
		<stop  offset="0.8878" style="stop-color:#F4F4F4"/>
	</linearGradient>
	<path class="st2" d="M584.8,691.4v-23.2c0-6.5,4-12.5,10-14.8c25.5-9.7,49.7-10.4,64-9.6c7.1,0.4,13.1-5.4,13.1-12.5v-40.8
		c0-6.7,4.1-12.9,10.4-15.3c15.7-5.8,30.9-8.1,44.7-8.3c9-0.2,16.4-8,16.4-17v-0.1c0-142.6-118.3-257.5-262.1-252.1
		c-130.7,5-237.3,111.5-242.2,242.2c-5.5,143.8,109.5,262.1,252.1,262.1l0.1,0c4.8,0,8.7-3.9,8.7-8.7l0.1-66.5
		c0-8.2,5.5-15.4,13.4-17.6c24.9-7.1,46.8-7.5,59.5-6.8C579.6,702.9,584.8,697.9,584.8,691.4z"/>
	<g>
		<linearGradient id="SVGID_2_" gradientUnits="userSpaceOnUse" x1="594.3658" y1="855.1642" x2="760.9423" y2="566.6453">
			<stop  offset="0" style="stop-color:#1E71A8"/>
			<stop  offset="1" style="stop-color:#11A0CC"/>
		</linearGradient>
		<path class="st3" d="M743.4,771.9L743.4,771.9c-9.8,0-19.1-0.6-27.2-1.9v-6.6v-13.3c8.1,1.2,17.3,1.8,27.2,1.8
			c28.1,0,51.5-5.5,55.8-12.7c0.5,0.8,0.7,1.6,0.7,2.4v15.1C799.9,765.1,774.7,771.9,743.4,771.9L743.4,771.9z M743.4,745.8
			L743.4,745.8c-9.8,0-19.1-0.6-27.1-1.8v-19.3c8.1,1.2,17.3,1.9,27.2,1.9c28.5,0,52.2-5.7,55.9-13c0.3,0.6,0.5,1.3,0.5,2v15.1
			C799.9,739,774.7,745.8,743.4,745.8L743.4,745.8z M743.4,720.1L743.4,720.1c-9.8,0-19.1-0.6-27.2-1.8v-18.8
			c8.1,1.2,17.3,1.9,27.2,1.9c28.9,0,52.7-5.8,56.1-13.3c0.3,0.6,0.4,1.2,0.4,1.8V705C799.9,713.3,774.7,720.1,743.4,720.1
			L743.4,720.1z M743.4,695.2L743.4,695.2c-9.8,0-19.1-0.7-27.2-1.8v-16.5c8.1,1.2,17.3,1.9,27.2,1.9c30.3,0,55.1-6.4,56.4-14.5
			c0,0.2,0,0.4,0,0.7V680C799.9,688.4,774.7,695.2,743.4,695.2L743.4,695.2z M716.3,663.7L716.3,663.7c0-5.7-11.9-10.7-29.3-13.2
			V642c0-0.4,0.1-0.9,0.2-1.3c2.4,7.7,26.7,13.8,56.3,13.8c29.6,0,53.9-6.1,56.3-13.8c0.1,0.4,0.2,0.8,0.2,1.3v15.1
			c0,8.3-25.2,15.1-56.5,15.1c-9.8,0-19.1-0.7-27.2-1.9v-0.2V663.7L716.3,663.7z M743.4,648.4L743.4,648.4
			c-31.2,0-56.5-6.8-56.4-15.1v-15.1c0-0.7,0.2-1.4,0.5-2.1c3.8,7.4,27.4,13.1,55.9,13.1c28.5,0,52.2-5.7,55.9-13.1
			c0.3,0.6,0.5,1.3,0.5,2.1v15.1C799.9,641.6,774.7,648.4,743.4,648.4L743.4,648.4z M743.4,622.8L743.4,622.8
			c-31.2,0-56.5-6.8-56.5-15.2v-15.1c0-8.3,25.3-15.1,56.5-15.1c31.3,0,56.5,6.7,56.5,15.1v15.2C799.9,616,774.7,622.8,743.4,622.8
			L743.4,622.8z M652.7,801.3L652.7,801.3c-6.9,0-13.5-0.3-19.5-1v-14.9v-5c6.1,0.6,12.7,0.9,19.5,0.9c28.1,0,51.4-5.5,55.8-12.8
			c0.5,0.8,0.7,1.6,0.7,2.5v15.1C709.2,794.5,684,801.3,652.7,801.3L652.7,801.3z M652.7,775.1L652.7,775.1
			c-6.9,0-13.5-0.3-19.5-0.9v-0.3v-9.4v-6.4V755c6.1,0.6,12.7,0.9,19.5,0.9c28.5,0,52.2-5.7,55.9-13c0.3,0.6,0.5,1.4,0.5,2.1v15.1
			C709.2,768.4,684,775.1,652.7,775.1L652.7,775.1z M633.2,731.2L633.2,731.2c0-0.5-0.1-1-0.2-1.4c6.1,0.6,12.8,1,19.8,1
			c28.9,0,52.7-5.8,56.1-13.3c0.3,0.5,0.4,1.2,0.4,1.8v15.1c0,8.3-25.3,15.1-56.5,15.1c-6.9,0-13.5-0.4-19.5-1v-1.5v-9.1V731.2
			L633.2,731.2z M605.1,717.5L605.1,717.5c-5.6-2.3-8.9-5.1-8.9-8.1v-15.1c0-0.2,0-0.4,0-0.6c1.4,8,26.1,14.4,56.4,14.4
			c30.3,0,55.1-6.4,56.4-14.4c0,0.2,0,0.4,0,0.6v15.1c0,8.3-25.3,15.1-56.5,15.1c-10.7,0-20.7-0.8-29.2-2.2
			C618.8,720.3,612.5,718.7,605.1,717.5L605.1,717.5z M652.7,701.6L652.7,701.6c-31.2,0-56.5-6.8-56.5-15.1v-15.1
			c0-8.3,25.3-15.1,56.5-15.1c31.2,0,56.5,6.7,56.5,15.1v15.1C709.2,694.8,684,701.6,652.7,701.6L652.7,701.6z M569.7,820.1
			L569.7,820.1c-31.2,0-56.5-6.7-56.5-15.1v-15.1c0-0.8,0.3-1.6,0.7-2.4c4.3,7.2,27.6,12.8,55.8,12.8s51.4-5.6,55.8-12.8
			c0.5,0.8,0.7,1.6,0.7,2.4V805C626.2,813.3,600.9,820.1,569.7,820.1L569.7,820.1z M569.7,794L569.7,794c-31.2,0-56.5-6.8-56.4-15.1
			v-15.1c0-0.7,0.2-1.4,0.5-2c3.8,7.4,27.4,13,55.9,13c28.6,0,52.2-5.7,55.9-13c0.3,0.6,0.5,1.3,0.5,2v15.1
			C626.2,787.2,600.9,794,569.7,794L569.7,794z M569.7,768.3L569.7,768.3c-31.2,0-56.5-6.8-56.5-15.1v-15.1
			c0-8.3,25.3-15.1,56.5-15.1c31.3,0,56.5,6.7,56.5,15.1v15.1C626.2,761.5,600.9,768.3,569.7,768.3L569.7,768.3z"/>
	</g>
	<g>
		<path class="st4" d="M247.6,555.7c0-136.1,109.7-246.4,245.4-246.4c136.1,0,245.4,115.8,245.4,246.1h23.5
			c0-144.8-121.2-270-270-270c-148.7,0-267.8,121.2-267.8,270c0,148.7,119.8,270,271.8,270v-23.5
			C354.7,801.7,247.6,691.4,247.6,555.7z"/>
		<linearGradient id="SVGID_3_" gradientUnits="userSpaceOnUse" x1="465.9726" y1="582.9062" x2="582.8909" y2="380.3977">
			<stop  offset="0" style="stop-color:#1E71A8"/>
			<stop  offset="1" style="stop-color:#11A0CC"/>
		</linearGradient>
		<path class="st5" d="M511.4,586.1c10.1-6.9,17-17.7,17-30.4c-0.7-7.6-1.4-10.1-3.3-14.1l114.7-110.4c4.7-4.3,5.1-12.3,0.4-17
			c-4.3-4.7-11.2-5.1-15.9-0.4l-114,109.3V422.8c0-9.8-8.3-17.7-18.1-17.7c-9.8,0-18.1,8-18.1,17.7v101.3
			c-10.9,6.5-18.1,18.1-18.1,31.5c0,20.3,15.6,36.6,35.5,36.6c1.8,0,4.3-0.4,4.3-0.4v0.4C503.1,592.2,506.4,590,511.4,586.1z"/>
	</g>
	<g>
		<path class="st6" d="M603.6,245.8c-1.6,0-3.2-0.3-4.8-0.9c-67.7-26.5-145-26.5-212.7,0c-6.8,2.6-14.4-0.7-17-7.5s0.7-14.4,7.5-17
			c73.9-28.8,158-28.8,231.9,0c6.8,2.6,10.1,10.3,7.5,17C613.8,242.6,608.8,245.8,603.6,245.8L603.6,245.8z"/>
		<path class="st6" d="M492.5,305.8c-7.3,0-13.2-5.9-13.2-13.2v-65.8c0-7.3,5.9-13.2,13.2-13.2s13.2,5.9,13.2,13.2v65.8
			C505.6,299.9,499.8,305.8,492.5,305.8L492.5,305.8z"/>
	</g>
</g>
</svg>
