<?xml version="1.0" encoding="utf-8"?>
<!-- Generator: Adobe Illustrator 19.0.0, SVG Export Plug-In . SVG Version: 6.00 Build 0)  -->
<svg version="1.1" id="图层_1" xmlns="http://www.w3.org/2000/svg" xmlns:xlink="http://www.w3.org/1999/xlink" x="0px" y="0px"
	 viewBox="8.9 0 1006.2 1024" style="enable-background:new 8.9 0 1006.2 1024;" xml:space="preserve">
<style type="text/css">
	.st0{fill-rule:evenodd;clip-rule:evenodd;fill:none;stroke:#F4F4F4;stroke-miterlimit:10;}
	.st1{fill-rule:evenodd;clip-rule:evenodd;fill:none;stroke:#F4F4F4;stroke-width:1.0512;stroke-miterlimit:10;}
	.st2{fill-rule:evenodd;clip-rule:evenodd;fill:#E0E0E0;}
	.st3{fill-rule:evenodd;clip-rule:evenodd;fill:url(#SVGID_1_);}
	.st4{fill-rule:evenodd;clip-rule:evenodd;fill:#131F25;}
	.st5{fill-rule:evenodd;clip-rule:evenodd;fill:url(#SVGID_2_);}
	.st6{fill-rule:evenodd;clip-rule:evenodd;fill:url(#SVGID_3_);}
	.st7{fill-rule:evenodd;clip-rule:evenodd;}
</style>
<g id="贴心背景">
	<polyline class="st0" points="111,97.1 487.4,19.1 900.5,632.1 998.7,415.1 497.4,19.1 	"/>
	<polygon class="st0" points="406.7,1010.4 28,436.9 881.4,79.2 	"/>
	<line class="st1" x1="12.5" y1="438" x2="111" y2="86.2"/>
	<line class="st1" x1="47.1" y1="436.9" x2="998.7" y2="415.1"/>
	<circle class="st2" cx="487.4" cy="19.1" r="19.1"/>
	<circle class="st2" cx="998.7" cy="415.1" r="16.4"/>
	<circle class="st2" cx="881.4" cy="79.2" r="16.4"/>
	<circle class="st2" cx="900.5" cy="632.1" r="19.1"/>
	<circle class="st2" cx="406.7" cy="1010.4" r="13.6"/>
	<circle class="st2" cx="28" cy="436.9" r="19.1"/>
	<circle class="st2" cx="111" cy="97.1" r="10.9"/>
</g>
<g id="贴心">
	<linearGradient id="SVGID_1_" gradientUnits="userSpaceOnUse" x1="459.4304" y1="602.2029" x2="555.2393" y2="436.257">
		<stop  offset="0" style="stop-color:#1E71A8"/>
		<stop  offset="1" style="stop-color:#11A0CC"/>
	</linearGradient>
	<path class="st3" d="M623.6,514.4c0-31-18.6-62-55.8-62c-37.2,0-55.8,31-55.8,31s-18.6-31-55.8-31c-37.2,0-55.8,24.8-55.8,62
		C400.4,576,512,632.2,512,632.2S623.6,576,623.6,514.4L623.6,514.4z"/>
	<path class="st4" d="M839.7,539c0-61.2-43.3-112.3-101-124.4c-8.9-117.5-107-210-226.7-210s-217.8,92.5-226.7,210
		c-57.7,12-101,63.1-101,124.4c0,67.3,52.3,122.3,118.4,126.8c0.6,0.2,1.3,0.3,1.9,0.3h16c6.7,0,12.1-5.4,12.1-12.1V424.1
		c0-6.8-5.5-12.2-12.2-12.2h-12.3c10-97.7,103.5-184.8,203.8-184.8s193.8,87.1,203.8,184.8h-12.2c-6.8,0-12.3,5.5-12.3,12.3v229.6
		c0,6.8,5.5,12.2,12.2,12.2h7.9C688.3,735.3,601.1,792.8,501,798.1c-5.1,0.3-9.1,4.4-9.1,9.4v2c0,5.6,4.7,10.2,10.2,9.9
		c115.6-5.8,210-70.6,232.2-155.3C794.2,653.8,839.7,601.7,839.7,539L839.7,539z"/>
	
		<linearGradient id="SVGID_2_" gradientUnits="userSpaceOnUse" x1="596.1555" y1="538.9954" x2="721.9688" y2="538.9954" gradientTransform="matrix(-1 0 0 1 1424.1692 0)">
		<stop  offset="0" style="stop-color:#FFFFFF"/>
		<stop  offset="1" style="stop-color:#E2E2E2"/>
	</linearGradient>
	<path class="st5" d="M702.2,646.5c0,2.8,2.2,5.2,4.9,5.3C774.7,655.5,828,595,828,539c0-68-51.6-116-120.8-112.8
		c-2.8,0.1-5,2.5-5,5.3V646.5z"/>
	
		<linearGradient id="SVGID_3_" gradientUnits="userSpaceOnUse" x1="354.8705" y1="539.8318" x2="480.6838" y2="539.8318" gradientTransform="matrix(1 0 0 1 -160.386 0)">
		<stop  offset="0" style="stop-color:#FFFFFF"/>
		<stop  offset="1" style="stop-color:#E2E2E2"/>
	</linearGradient>
	<path class="st6" d="M320.3,649.6c0,2.9-2.2,5.4-5.1,5.5c-67.5,3.6-120.7-56.8-120.7-112.8c0-67.8,50.7-115.8,120.2-117.9
		c3.1-0.1,5.6,2.5,5.6,5.5V649.6z"/>
	<path class="st7" d="M355.4,666h-9.5c-0.6,0-1.1-0.5-1.1-1.1V416.4c0-0.6,0.5-1.1,1.1-1.1h9.5c0.6,0,1.1,0.5,1.1,1.1v248.6
		C356.5,665.5,356,666,355.4,666z"/>
	<path class="st7" d="M677.5,666H668c-0.6,0-1.1-0.5-1.1-1.1V416.4c0-0.6,0.5-1.1,1.1-1.1h9.5c0.6,0,1.1,0.5,1.1,1.1v248.6
		C678.6,665.5,678.1,666,677.5,666z"/>
</g>
</svg>
