<?xml version="1.0" encoding="utf-8"?>
<!-- Generator: Adobe Illustrator 19.0.0, SVG Export Plug-In . SVG Version: 6.00 Build 0)  -->
<svg version="1.1" id="图层_1" xmlns="http://www.w3.org/2000/svg" xmlns:xlink="http://www.w3.org/1999/xlink" x="0px" y="0px"
	 viewBox="0 86.5 1024 851" style="enable-background:new 0 86.5 1024 851;" xml:space="preserve">
<style type="text/css">
	.st0{fill:#EDEDED;stroke:#F4F4F4;stroke-miterlimit:10;}
	.st1{fill:none;stroke:#F7F7F7;stroke-miterlimit:10;}
	.st2{fill:none;stroke:#F4F4F4;stroke-miterlimit:10;}
	.st3{fill-rule:evenodd;clip-rule:evenodd;fill:#E0E0E0;}
	.st4{fill-rule:evenodd;clip-rule:evenodd;fill:url(#SVGID_1_);}
	.st5{fill-rule:evenodd;clip-rule:evenodd;fill:url(#SVGID_2_);}
	.st6{fill-rule:evenodd;clip-rule:evenodd;fill:url(#SVGID_3_);}
	.st7{fill-rule:evenodd;clip-rule:evenodd;fill:#131F25;}
	.st8{fill-rule:evenodd;clip-rule:evenodd;fill:#FFFFFF;}
	.st9{fill-rule:evenodd;clip-rule:evenodd;fill:url(#SVGID_4_);}
	.st10{fill-rule:evenodd;clip-rule:evenodd;fill:url(#SVGID_5_);}
	.st11{fill-rule:evenodd;clip-rule:evenodd;fill:url(#SVGID_6_);}
	.st12{fill-rule:evenodd;clip-rule:evenodd;fill:#F7F7F7;}
</style>
<g id="安全背景">
	<line class="st0" x1="247.2" y1="172.9" x2="69.1" y2="746.3"/>
	<line class="st1" x1="142.9" y1="500.6" x2="142.9" y2="500.6"/>
	<line class="st1" x1="123.1" y1="562.7" x2="123.1" y2="562.7"/>
	<polyline class="st2" points="247.2,172.9 908.3,347.3 345.9,914.9 679.3,873.5 566,109.1 1007,545.8 334.2,922.4 69.1,746.3 
		11.3,500.6 566,99.4 	"/>
	<line class="st2" x1="11.3" y1="489.3" x2="679.3" y2="873.5"/>
	<circle class="st3" cx="247.2" cy="172.9" r="22.6"/>
	<circle class="st3" cx="908.3" cy="347.3" r="17"/>
	<circle class="st3" cx="1007" cy="545.8" r="17"/>
	<circle class="st3" cx="679.3" cy="873.5" r="17"/>
	<circle class="st3" cx="345.9" cy="914.9" r="22.6"/>
	<circle class="st3" cx="69.1" cy="746.3" r="14.1"/>
	<circle class="st3" cx="11.3" cy="500.6" r="11.3"/>
	<circle class="st3" cx="566" cy="109.1" r="22.6"/>
</g>
<g id="安全">
	<linearGradient id="SVGID_1_" gradientUnits="userSpaceOnUse" x1="181.4621" y1="575.2007" x2="748.5795" y2="575.2007">
		<stop  offset="0" style="stop-color:#FFFFFF"/>
		<stop  offset="0.4243" style="stop-color:#F8F8F8"/>
		<stop  offset="1" style="stop-color:#E2E2E2"/>
	</linearGradient>
	<rect x="181.5" y="329.9" class="st4" width="567.1" height="490.7"/>
	<linearGradient id="SVGID_2_" gradientUnits="userSpaceOnUse" x1="176.6422" y1="282.3056" x2="705.8669" y2="282.3056">
		<stop  offset="0" style="stop-color:#002D3F"/>
		<stop  offset="1" style="stop-color:#003C55"/>
	</linearGradient>
	<polygon class="st5" points="194.5,290.5 176.6,320.9 705.9,320.9 705.9,250.3 659.9,243.7 	"/>
	<linearGradient id="SVGID_3_" gradientUnits="userSpaceOnUse" x1="476.1675" y1="320.9248" x2="476.1675" y2="198.4857">
		<stop  offset="0" style="stop-color:#1E71A8"/>
		<stop  offset="1" style="stop-color:#11A0CC"/>
	</linearGradient>
	<polygon class="st6" points="292.5,318.7 612.6,198.5 659.9,320.9 	"/>
	<path class="st7" d="M740.2,721.6c0,0,9.6,2.8,20.4,0.2l-1-368.4c0-22.6-17.8-40.4-40.4-40.4v-40.4c0-13.1-3.6-23.7-11.9-30.9
		c-11.9-10.7-27.3-9.5-28.5-9.5c-1.2,0-14.2,1.2-38,3.6l-5.9-17.8c-7.1-20.2-30.9-30.9-51-23.7L402.3,262
		c-85.5,9.5-167.4,17.8-201.8,21.4c-29.7,3.6-39.2,39.2-39.2,59.4v448.7c0,22.6,17.8,40.4,40.4,40.4h518.8
		c22.6,0,40.4-17.8,40.4-40.4l-0.2-55.3c0,0-4,2.1-10,2.1s-11-2.1-11-2.1l-0.1,55.3c0,10.7-9.5,20.2-20.2,20.2H201.6
		c-10.7,0-20.2-9.5-20.2-20.2V352.3c0-10.7,9.5-20.2,20.2-20.2h518.8c10.7,0,20.2,9.5,20.2,20.2 M496,313.1
		c7.1-11.9,20.2-20.2,34.4-20.2s27.3,8.3,34.4,20.2H496z M681.2,253.7L681.2,253.7c0,0,8.3-1.2,13.1,3.6c3.6,3.6,5.9,8.3,5.9,15.4
		v40.4h-30.9l-20.2-57C668.2,254.9,680,253.7,681.2,253.7z M589.8,214.6L589.8,214.6c10.7-3.6,21.4,1.2,26.1,11.9l37.7,86.7h-66.2
		c-8.3-23.7-30.9-40.4-55.8-40.4c-26.1,0-48.7,16.6-55.8,40.4h-160L589.8,214.6z M201.6,303.6L201.6,303.6
		c23.7-2.4,68.9-7.1,122.3-13.1L261,313.1h-59.4c-4.7,0-9.5,1.2-13.1,2.4C191,309.5,195.7,303.6,201.6,303.6z"/>
	<path class="st7" d="M689.5,392.6h20.2c5.9,0,9.5-4.7,9.5-9.5c0-5.9-4.7-9.5-9.5-9.5h-20.2c-5.9,0-9.5,4.7-9.5,9.5
		C680,387.9,683.6,392.6,689.5,392.6L689.5,392.6z"/>
	<path class="st7" d="M630.2,392.6h20.2c5.9,0,9.5-4.7,9.5-9.5c0-5.9-4.7-9.5-9.5-9.5h-20.2c-5.9,0-9.5,4.7-9.5,9.5
		C619.5,387.9,624.3,392.6,630.2,392.6L630.2,392.6z"/>
	<path class="st7" d="M569.6,392.6h20.2c5.9,0,9.5-4.7,9.5-9.5c0-5.9-4.7-9.5-9.5-9.5h-20.2c-5.9,0-9.5,4.7-9.5,9.5
		C560.1,387.9,564.9,392.6,569.6,392.6L569.6,392.6z"/>
	<path class="st7" d="M530.5,372.4h-20.2c-5.9,0-9.5,4.7-9.5,9.5c0,5.9,4.7,9.5,9.5,9.5h20.2c5.9,0,9.5-4.7,9.5-9.5
		C540,377.2,535.2,372.4,530.5,372.4L530.5,372.4z"/>
	<path class="st7" d="M469.9,372.4h-20.2c-5.9,0-9.5,4.7-9.5,9.5c0,5.9,4.7,9.5,9.5,9.5h20.2c5.9,0,9.5-4.7,9.5-9.5
		C480.6,377.2,475.9,372.4,469.9,372.4L469.9,372.4z"/>
	<path class="st7" d="M410.6,372.4h-20.2c-5.9,0-9.5,4.7-9.5,9.5c0,5.9,4.7,9.5,9.5,9.5h20.2c5.9,0,9.5-4.7,9.5-9.5
		C420.1,377.2,416.5,372.4,410.6,372.4L410.6,372.4z"/>
	<path class="st7" d="M351.2,372.4H331c-5.9,0-9.5,4.7-9.5,9.5c0,5.9,4.7,9.5,9.5,9.5h20.2c5.9,0,9.5-4.7,9.5-9.5
		C360.7,377.2,356,372.4,351.2,372.4L351.2,372.4z"/>
	<path class="st7" d="M290.7,372.4h-20.2c-5.9,0-9.5,4.7-9.5,9.5c0,5.9,4.7,9.5,9.5,9.5h20.2c5.9,0,9.5-4.7,9.5-9.5
		C301.4,377.2,296.6,372.4,290.7,372.4L290.7,372.4z"/>
	<path class="st7" d="M231.3,372.4h-20.2c-5.9,0-9.5,4.7-9.5,9.5c0,5.9,4.7,9.5,9.5,9.5h20.2c5.9,0,9.5-4.7,9.5-9.5
		C240.8,377.2,236.1,372.4,231.3,372.4L231.3,372.4z"/>
	<path class="st7" d="M689.5,771.3h20.2c5.9,0,9.5-4.7,9.5-9.5c0-5.9-4.7-9.5-9.5-9.5h-20.2c-5.9,0-9.5,4.7-9.5,9.5
		C680,767.7,683.6,771.3,689.5,771.3L689.5,771.3z"/>
	<path class="st7" d="M630.2,771.3h20.2c5.9,0,9.5-4.7,9.5-9.5c0-5.9-4.7-9.5-9.5-9.5h-20.2c-5.9,0-9.5,4.7-9.5,9.5
		C619.5,767.7,624.3,771.3,630.2,771.3L630.2,771.3z"/>
	<path class="st7" d="M560.1,761.8c0,5.9,4.7,9.5,9.5,9.5h20.2c5.9,0,9.5-4.7,9.5-9.5c0-5.9-4.7-9.5-9.5-9.5h-20.2
		C564.9,752.3,560.1,755.9,560.1,761.8L560.1,761.8z"/>
	<path class="st7" d="M530.5,752.3h-20.2c-5.9,0-9.5,4.7-9.5,9.5c0,5.9,4.7,9.5,9.5,9.5h20.2c5.9,0,9.5-4.7,9.5-9.5
		C540,755.9,535.2,752.3,530.5,752.3L530.5,752.3z"/>
	<path class="st7" d="M469.9,752.3h-20.2c-5.9,0-9.5,4.7-9.5,9.5c0,5.9,4.7,9.5,9.5,9.5h20.2c5.9,0,9.5-4.7,9.5-9.5
		C480.6,755.9,475.9,752.3,469.9,752.3L469.9,752.3z"/>
	<path class="st7" d="M410.6,752.3h-20.2c-5.9,0-9.5,4.7-9.5,9.5c0,5.9,4.7,9.5,9.5,9.5h20.2c5.9,0,9.5-4.7,9.5-9.5
		C420.1,755.9,416.5,752.3,410.6,752.3L410.6,752.3z"/>
	<path class="st7" d="M351.2,752.3H331c-5.9,0-9.5,4.7-9.5,9.5c0,5.9,4.7,9.5,9.5,9.5h20.2c5.9,0,9.5-4.7,9.5-9.5
		C360.7,755.9,356,752.3,351.2,752.3L351.2,752.3z"/>
	<path class="st7" d="M290.7,752.3h-20.2c-5.9,0-9.5,4.7-9.5,9.5c0,5.9,4.7,9.5,9.5,9.5h20.2c5.9,0,9.5-4.7,9.5-9.5
		C301.4,755.9,296.6,752.3,290.7,752.3L290.7,752.3z"/>
	<path class="st7" d="M231.3,752.3h-20.2c-5.9,0-9.5,4.7-9.5,9.5c0,5.9,4.7,9.5,9.5,9.5h20.2c5.9,0,9.5-4.7,9.5-9.5
		C240.8,755.9,236.1,752.3,231.3,752.3L231.3,752.3z"/>
	<g>
		<polygon class="st8" points="699.6,462 735.1,431.8 764.7,431.8 797.9,475.5 797.9,508.1 692,508.1 		"/>
		<linearGradient id="SVGID_4_" gradientUnits="userSpaceOnUse" x1="749.1691" y1="718.1078" x2="749.1691" y2="510.4029">
			<stop  offset="0" style="stop-color:#E2E2E2"/>
			<stop  offset="1" style="stop-color:#FFFFFF"/>
		</linearGradient>
		<circle class="st9" cx="749.2" cy="614.3" r="103.9"/>
		<linearGradient id="SVGID_5_" gradientUnits="userSpaceOnUse" x1="635.6217" y1="578.0408" x2="862.7164" y2="578.0408">
			<stop  offset="0" style="stop-color:#00182A"/>
			<stop  offset="1" style="stop-color:#002D3F"/>
		</linearGradient>
		<path class="st10" d="M862.7,611.2c0-39.1-19-74.8-49.7-96.2v-21v-1.9c-0.5-35.9-30-64.5-65.9-64c-35.9,0.5-64.5,30-64,65.9v22.6
			c-29.5,21.6-47.6,56.7-47.6,94.8v3.1c0,60.4,47.2,109.8,106.7,113.3c2.2,0.2,4.5,0.2,6.7,0.2c2.4,0,4.7-0.2,7.1-0.2
			c59.5-3.6,106.6-52.9,106.6-113.3v-1.4C862.5,612.3,862.7,611.8,862.7,611.2L862.7,611.2z M703.2,493.8c0-24.8,20-44.8,44.8-44.8
			c24.8,0,44.8,20,44.8,44.8v15.5c-13.4-5.7-28.3-8.8-43.8-8.8c-16.4,0-31.7,3.4-45.9,9.7V493.8L703.2,493.8z M749.1,707.6
			c-51,0-92.6-42.4-93.3-94.8c0.9-50.9,42.2-91.9,93.3-91.9s92.6,41,93.3,91.9C841.7,665.2,800.1,707.6,749.1,707.6L749.1,707.6z"/>
		<linearGradient id="SVGID_6_" gradientUnits="userSpaceOnUse" x1="749.0829" y1="664.6919" x2="749.0829" y2="578.303">
			<stop  offset="0" style="stop-color:#11A0CC"/>
			<stop  offset="1" style="stop-color:#1E71A8"/>
		</linearGradient>
		<path class="st11" d="M749.1,578.3c-11.9,0-21.6,9.7-21.6,21.6c0,9.1,5.7,17.2,14.3,20.3v37.2c0,4,3.3,7.2,7.2,7.2
			s7.2-3.3,7.2-7.2v-37.2c8.6-3.1,14.3-11.2,14.3-20.3C770.6,588,761,578.3,749.1,578.3L749.1,578.3z"/>
	</g>
	<path class="st12" d="M573,315.5c0,0-8.1-29.2-42.5-29.2c-35.7,0-42.5,29.2-42.5,29.2"/>
	<path class="st12" d="M487.9,315.5h85c0,0-14.3-28.8-42.5-29.2C502.3,285.9,487.9,315.5,487.9,315.5z"/>
</g>
</svg>
