<?xml version="1.0" encoding="utf-8"?>
<!-- Generator: Adobe Illustrator 19.0.0, SVG Export Plug-In . SVG Version: 6.00 Build 0)  -->
<svg version="1.1" id="图层_1" xmlns="http://www.w3.org/2000/svg" xmlns:xlink="http://www.w3.org/1999/xlink" x="0px" y="0px"
	 viewBox="0 0 1024 1024" style="enable-background:new 0 0 1024 1024;" xml:space="preserve">
<style type="text/css">
	.st0{fill:#CACACA;}
	.st1{fill:#5E5E5E;}
	.st2{fill:#8D8D8D;}
	.st3{fill:#F8F8F8;}
	.st4{fill:#6C6C6C;}
</style>
<g id="XMLID_190_">
	<circle id="XMLID_219_" class="st0" cx="512" cy="512" r="512"/>
	<g id="XMLID_216_">
		<polygon id="XMLID_218_" class="st1" points="332.5,602.5 223,866.3 337.6,821.5 394.5,923.2 487.7,657.7 		"/>
		<polygon id="XMLID_217_" class="st1" points="691.5,602.5 801,866.3 686.4,821.5 629.5,923.2 536.3,657.7 		"/>
	</g>
	<path id="XMLID_215_" class="st2" d="M828.9,522.3c11.1-5.7,15-19.5,8.3-30.2L799,432c-4.5-6.9-4.3-16,0.3-22.9l39.4-59.3
		c6.9-10.5,3.3-24.6-7.8-30.4l-63.3-32.8c-7.4-3.9-11.9-11.8-11.3-20.1l4.6-70.9c0.7-12.6-9.6-22.7-22.1-22.4l-71.2,3.1
		c-8.2,0.6-16.1-4.1-19.8-11.5l-31.5-64.2c-5.7-11.1-19.5-15-30.2-8.3l-60.1,38.4c-6.9,4.5-16,4.3-22.9-0.3l-59.4-39.2
		c-10.5-6.9-24.6-3.3-30.4,7.8l-32.8,63.3c-3.9,7.4-11.8,11.9-20.1,11.3l-70.7-4.8c-12.6-0.7-22.7,9.6-22.4,22.1l3.1,71.2
		c0.6,8.2-4.1,16.1-11.5,19.8l-64.1,31.4c-11.1,5.7-15,19.5-8.3,30.2l38.4,60.1c4.5,6.9,4.3,16-0.3,22.9l-39.2,59.4
		c-6.9,10.5-3.3,24.6,7.8,30.4l63.3,32.8c7.4,3.9,11.9,11.8,11.3,20.1l-4.6,71.1c-0.7,12.6,9.6,22.7,22.1,22.4l71.2-3.1
		c8.2-0.6,16.1,4.1,19.8,11.5l31.7,63.9c5.7,11.1,19.5,15,30.2,8.3l60.1-38.4c6.9-4.5,16-4.3,22.9,0.3l59.3,39.4
		c10.5,6.9,24.6,3.3,30.4-7.8l32.8-63.3c3.9-7.4,11.8-11.9,20.1-11.3l71.1,4.6c12.6,0.7,22.7-9.6,22.4-22.1l-3.1-71.2
		c-0.6-8.2,4.1-16.1,11.5-19.8L828.9,522.3L828.9,522.3z"/>
	<circle id="XMLID_214_" class="st3" cx="512" cy="407.9" r="206.9"/>
	<path id="XMLID_211_" class="st4" d="M512,187.4c-121.7,0-220.5,98.7-220.5,220.5S390.3,628.3,512,628.3s220.5-98.7,220.5-220.5
		S633.7,187.4,512,187.4z M512,614.7c-114.3,0-206.9-92.6-206.9-206.9S397.7,201,512,201s206.9,92.6,206.9,206.9
		S626.3,614.7,512,614.7z"/>
	<g id="XMLID_184_">
		<path id="XMLID_188_" class="st2" d="M492.7,326.5c13.8,11.2,22.2,26.7,25.1,45.9h-30.4c-3.2-12.6-9-21.6-17.8-27.5
			c-8.6-5.8-19.4-8.6-32.8-8.6c-20,0-35,6.6-45.1,20.6c-9.4,12.2-13.8,29.4-13.8,51.2c0,22.4,4.6,39.8,13.6,51.8
			c9.8,12.8,25.4,19.4,46.2,19.4c13.6,0,24.8-3.4,33.4-9.8c9-7.2,15.4-18.2,19.2-32.6h30.4c-4.2,22.4-14.2,39.8-29.9,52.3
			c-14.6,11.8-32.3,17.6-52.8,17.6c-31.8,0-55.5-10.2-71-29.9c-13.6-17-20.3-40-20.3-68.9c0-28.3,7-51.5,21.1-69.1
			c16-20.3,39.2-30.2,69.7-30.2C459.5,308.9,478.3,314.7,492.7,326.5z"/>
		<path id="XMLID_185_" class="st2" d="M659.8,324.9c11.8,10.6,17.6,24.3,17.6,41.4c0,16.6-6.4,31.5-18.6,45.1
			c-7.4,8-20.8,18.2-39.5,30.7c-19.4,12.8-31.2,24-35.5,33.6h93.9v27.5H544.7c0-19.4,6.2-36.3,19-50.7c7-8,21.6-19.8,43.8-35
			c12.2-8.6,20.8-15.8,26.2-21.4c8.2-9.4,12.6-19.4,12.6-30.2c0-10.4-3-18.2-8.2-23.2c-5.6-5-13.8-7.4-24.8-7.4
			c-11.8,0-20.6,4-26.4,12c-5.8,7.4-9,19-9.6,33.9h-31.2c0.2-21.4,6.4-38.4,18.6-51.5c12.6-13.8,29.1-20.8,49.6-20.8
			C632.6,308.9,647.8,314.2,659.8,324.9z"/>
	</g>
</g>
</svg>
