<?xml version="1.0" encoding="utf-8"?>
<!-- Generator: Adobe Illustrator 19.0.0, SVG Export Plug-In . SVG Version: 6.00 Build 0)  -->
<svg version="1.1" id="图层_1" xmlns="http://www.w3.org/2000/svg" xmlns:xlink="http://www.w3.org/1999/xlink" x="0px" y="0px"
	 viewBox="0 0 1024 1024" style="enable-background:new 0 0 1024 1024;" xml:space="preserve">
<style type="text/css">
	.st0{fill:#67C5F4;}
	.st1{fill:#DBDBDB;}
	.st2{fill:#38393E;}
	.st3{fill:#454551;}
	.st4{fill:#F8F8F8;}
</style>
<g id="XMLID_289_">
	<circle id="XMLID_305_" class="st0" cx="512" cy="512" r="512"/>
	<path id="XMLID_304_" class="st1" d="M331.3,371.9c-0.5-2.6-28-30.2-30.6-9c-2.6,21.1-0.9,95.7,5.1,97.4c6.1,1.7,28.5,2.6,31.1-3
		C339.4,451.7,331.3,371.9,331.3,371.9z"/>
	<path id="XMLID_303_" class="st1" d="M701.9,356.2c0,0,33.6,14.9,36.7,23.9c3,9-15.5,81.5-15.5,81.5s-28,11.2-28.5-3.9
		C694.2,442.6,701.9,356.2,701.9,356.2z"/>
	<path id="XMLID_302_" class="st2" d="M112.7,832.5C206.5,949.3,350.5,1024,512,1024s305.5-74.7,399.3-191.5v-15.7
		c0-74.2-60.1-134.3-134.3-134.3H247c-74.2,0-134.3,60.1-134.3,134.3V832.5z"/>
	<path id="XMLID_301_" class="st3" d="M687.1,715c-12.2-4.5-20-20.9-24.1-32.6H356.9c-19.1,23.4-41.9,54.2-41.6,65.5
		c0.7,19.4,0,144.8,0,144.8l49.8,48.5c0,0-9.7,27.2-19.5,55.1c52.1,18.1,108.1,27.8,166.4,27.8c64.5,0,126.1-11.9,182.9-33.6
		l-31.8-45.9c0,0,31.7-22.6,41.4-36.8s14.9-27.8,15.5-61.4s-3.3-106.1-3.3-106.1S706.4,722.1,687.1,715z"/>
	<path id="XMLID_300_" class="st1" d="M427.2,588.9c0,0-11,55.5-35.5,78.9c-24.6,23.3-1.9,55,3.2,76.2c5.1,21.4,17.5,60.1,17.5,60.1
		v210.1c32.2,6.4,65.6,9.7,99.7,9.7c36.6,0,72.3-3.9,106.7-11.2l-0.2-1.1l2.5-210.2L653.4,676l-53.6-83.4L427.2,588.9z"/>
	<path id="XMLID_299_" class="st4" d="M398.7,634.2l-45.9,38.7l40.1,137.7c0,0,14.2,5.1,21.4-14.2c7.1-19.4,37.5-73.7,37.5-73.7
		L398.7,634.2z"/>
	<path id="XMLID_298_" class="st4" d="M639.9,634.2l-64,73c0,0-7.8,15.5,0,22.6s59.4,87.9,59.4,87.9l42.1-120.2
		c0,0,5.8-16.1-7.8-34.3S639.9,634.2,639.9,634.2z"/>
	<path id="XMLID_297_" class="st2" d="M467.2,757.6c0,0,3.7,17.9,18.4,22.3l-5.1,243.1c10.4,0.7,20.9,0.9,31.4,0.9
		c15.5,0,31-0.7,46.3-2.1l-5.7-242.2c3.2-3.2,7.2-7.5,9.7-12.5c5.1-9.7,7.1-66.6,7.1-66.6H464L467.2,757.6z"/>
	<path id="XMLID_296_" class="st4" d="M536.7,625.8h-44.9c-94.5,0-171.2-76.7-171.2-171.2V257.8c0-94.5,76.7-171.2,171.2-171.2h44.9
		c94.5,0,171.2,76.7,171.2,171.2v196.8C707.8,549.1,631.2,625.8,536.7,625.8z"/>
	<path id="XMLID_307_" class="st3" d="M536.7,86.6h-44.9c-94.5,0-171.2,76.7-171.2,171.2v171.4h9c0,0,10.6-75.7,10.6-76.6
		c0-0.9,8.5-16.1,8.5-17.8c0-1.6,2.9-27.4,2.9-27.4h24.9l14.2-32.7c0,0,12.9,1.6,12.9-1.6s3.9-41,3.9-41l55,59.4l188.8-0.7l20,44.6
		l23.3,29.7l-1.9,59.8l15.3,2.9V280.2c0-1.5,0-3,0-4.5l0,0v-18.1C707.8,163.3,631.2,86.6,536.7,86.6z"/>
</g>
</svg>
