<?xml version="1.0" encoding="utf-8"?>
<!-- Generator: Adobe Illustrator 19.0.0, SVG Export Plug-In . SVG Version: 6.00 Build 0)  -->
<svg version="1.1" id="图层_1" xmlns="http://www.w3.org/2000/svg" xmlns:xlink="http://www.w3.org/1999/xlink" x="0px" y="0px"
	 viewBox="0 0 1024 1024" style="enable-background:new 0 0 1024 1024;" xml:space="preserve">
<style type="text/css">
	.st0{fill:#CACACA;}
	.st1{fill:#8D8D8D;}
	.st2{fill:#A19F9F;}
	.st3{fill:#626262;}
</style>
<g id="XMLID_264_">
	<circle id="XMLID_210_" class="st0" cx="512" cy="512" r="512"/>
	<path id="XMLID_249_" class="st1" d="M876.9,493.1c-0.5-9-1.3-17.9-2.4-26.7c-4.6-15.9-19.4-28.3-36.3-28.9l-16.2-0.6
		c-25.9-2.2-50.1-17.7-62.1-42.9c-12-25.3-8.8-53.7,5.8-75.2l9.7-13c10.2-13.5,9.9-32.8,0.5-46.4c-6.2-6.4-12.6-12.7-19.3-18.7
		c-6.7-6.1-13.6-11.8-20.6-17.3c-14.5-8-33.7-6.3-46.2,5.3l-11.9,11.1c-19.9,16.8-47.9,22.9-74.2,13.6c-26.3-9.4-44.2-31.7-49-57.3
		l-2.3-16c-2.4-16.8-16.2-30.3-32.6-33.1c-8.9-0.2-17.8-0.1-26.9,0.3c-9,0.5-17.9,1.3-26.7,2.4c-15.9,4.6-28.3,19.4-28.9,36.3
		l-0.6,16.2c-2.2,25.9-17.7,50.1-42.9,62.1c-25.1,12-53.6,8.8-75.2-5.7l-13-9.8c-13.5-10.2-32.8-9.9-46.4-0.5
		c-6.4,6.2-12.7,12.6-18.7,19.3c-6.1,6.7-11.8,13.6-17.3,20.6c-8.1,14.5-6.3,33.7,5.3,46.2l11.1,11.9c16.8,19.9,22.9,47.9,13.6,74.2
		c-9.4,26.3-31.7,44.1-57.3,49l-16.1,2.3c-16.8,2.4-30.3,16.2-33.1,32.6c-0.2,8.9,0,17.8,0.3,26.9c0.5,9,1.3,17.9,2.4,26.7
		c4.6,15.9,19.4,28.3,36.3,28.9l16.2,0.6c25.9,2.2,50.2,17.7,62.1,42.9c12,25.1,8.8,53.6-5.7,75.2l-9.8,13
		c-10.2,13.5-9.9,32.8-0.5,46.4c6.2,6.4,12.6,12.7,19.3,18.7c6.7,6.1,13.6,11.8,20.6,17.3c14.5,8,33.7,6.3,46.2-5.3l11.9-11.1
		c19.9-16.8,47.9-22.9,74.3-13.6c26.3,9.4,44.1,31.7,49,57.1l2.3,16.1c2.4,16.8,16.2,30.3,32.5,33.1c8.9,0.2,17.8,0,26.9-0.3
		c9-0.5,17.9-1.3,26.7-2.4c15.9-4.6,28.3-19.4,28.9-36.3l0.6-16.2c2.2-25.9,17.7-50.1,42.9-62.2c25.1-12,53.6-8.8,75.1,5.8l13,9.8
		c13.5,10.2,32.8,9.9,46.4,0.5c6.4-6.2,12.7-12.6,18.7-19.3c6.1-6.7,11.8-13.6,17.3-20.6c8.1-14.5,6.4-33.7-5.1-46.2l-11.1-11.9
		c-16.8-19.9-22.9-47.9-13.6-74.2c9.4-26.3,31.7-44.2,57.3-49l16.1-2.3c16.8-2.4,30.3-16.2,33.1-32.6
		C877.5,511.1,877.4,502.1,876.9,493.1z M512,630.1c-65.1,0-118.1-52.8-118.1-118.1c0-65.1,52.8-118.1,118.1-118.1
		c65.1,0,118.1,52.8,118.1,118.1C630.1,577.1,577.1,630.1,512,630.1z"/>
	<path id="XMLID_227_" d="M512,512L512,512z"/>
	<path id="XMLID_246_" class="st2" d="M512,299.1c-117.6,0-212.9,95.3-212.9,212.9S394.4,724.9,512,724.9S724.9,629.6,724.9,512
		S629.6,299.1,512,299.1z M512,701.5c-104.7,0-189.5-84.8-189.5-189.5S407.3,322.5,512,322.5S701.5,407.3,701.5,512
		S616.7,701.5,512,701.5z"/>
	<path id="XMLID_248_" class="st3" d="M512,370.5c-78.1,0-141.5,63.3-141.5,141.5S433.9,653.5,512,653.5S653.5,590.2,653.5,512
		S590.1,370.5,512,370.5z M512,630.1c-65.1,0-118.1-52.8-118.1-118.1c0-65.1,52.8-118.1,118.1-118.1c65.1,0,118.1,52.8,118.1,118.1
		C630.1,577.1,577.1,630.1,512,630.1z"/>
	<g id="XMLID_225_">
		<path id="XMLID_240_" class="st3" d="M511.7,890.4c-2.6,0-5.4,0-8-0.1h-1l-1-0.2c-22.3-3.9-40-22.1-43.1-44.1l-2.3-15.9
			c-4.2-21.7-19.8-39.8-40.6-47.1c-20.8-7.4-44.3-3.2-61.3,11.1l-11.7,10.9c-16.2,15.2-41.5,18.1-61.3,7.1l-0.9-0.5l-0.8-0.6
			c-7.8-6.1-14.7-11.9-21.4-17.8c-6.5-5.8-13-12.2-20-19.3l-0.7-0.7l-0.6-0.8c-12.9-18.5-12.6-43.9,0.7-61.7l9.6-12.8
			c12.3-18.4,14.1-42.1,4.6-62.1c-9.5-20-29-33.5-51.2-35.5l-15.9-0.6c-22.3-0.8-42.2-16.6-48.3-38.3l-0.2-1l-0.1-1
			c-1.1-8.8-1.9-18.2-2.4-27.7c-0.5-9.5-0.6-18.7-0.5-27.9v-1l0.2-1c3.9-22.3,22.1-40,44.1-43.1l15.8-2.3
			c21.7-4.2,39.8-19.8,47.2-40.6c7.4-20.8,3.2-44.2-11.1-61.3l-10.9-11.7c-15.2-16.3-18.1-41.5-7.1-61.4l0.5-0.9l0.6-0.8
			c6.1-7.8,11.9-14.7,17.8-21.4c6.3-7,12.8-13.7,19.4-20l0.7-0.7l0.8-0.6c18.5-13,43.9-12.7,61.7,0.7l12.7,9.6
			c18.4,12.3,42.2,14.2,62.1,4.6c20-9.5,33.5-29,35.5-51.1L424,185c0.8-22.2,16.6-42.2,38.3-48.3l1-0.2l1-0.1
			c8.9-1.1,18.2-1.9,27.7-2.4c10.2-0.5,19.2-0.6,28-0.3h0.9l0.9,0.1c22.3,3.9,40,22.1,43.1,44.1l2.2,15.8
			c4.2,21.7,19.8,39.8,40.6,47.2c20.8,7.4,44.2,3.2,61.3-11.1l11.7-10.9c16.2-15.2,41.5-18.1,61.3-7.1l0.9,0.5l0.8,0.6
			c7.8,6.1,14.7,11.9,21.4,17.8c6.5,5.8,13,12.1,20,19.3l0.7,0.7l0.6,0.8c12.9,18.6,12.7,44-0.8,61.7l-9.6,12.7
			c-12.3,18.3-14.2,42.1-4.7,62.1s29,33.5,51.2,35.5l15.9,0.6c22.3,0.8,42.2,16.6,48.3,38.3l0.2,1l0.1,1c1.1,8.9,1.9,18.2,2.4,27.7
			v0.1c0.5,9.4,0.6,18.7,0.5,27.8v1l-0.2,1c-3.9,22.3-22.1,40-44.1,43.1l-15.8,2.3c-21.7,4.2-39.8,19.8-47.2,40.6
			c-7.4,20.8-3.2,44.2,11.1,61.3l10.9,11.7c15.2,16.3,18.1,41.6,7,61.4l-0.5,0.9l-0.6,0.8c-6.1,7.8-11.9,14.7-17.8,21.4
			c-5.8,6.5-12.1,13-19.3,20l-0.7,0.7l-0.8,0.6c-18.5,12.9-43.9,12.6-61.7-0.7l-12.8-9.6c-18.3-12.3-42.1-14.2-61.9-4.7
			c-20,9.5-33.6,29.1-35.5,51.2l-0.6,15.9c-0.8,22.3-16.6,42.2-38.3,48.3l-1,0.2l-1,0.1c-8.8,1.1-18.2,1.9-27.7,2.4
			C524.9,890.3,518.2,890.4,511.7,890.4z M505.4,864.3c8.1,0.1,16.5,0,24.9-0.5c8.5-0.5,16.8-1.1,24.8-2.2
			c10.5-3.4,18.3-13.4,18.6-24l0.6-16.8c2.6-31.4,21.9-59.3,50.3-72.8s62.1-10.9,88,6.7l0.5,0.3l13,9.8c8.5,6.4,21.1,6.6,30.4,0.7
			c6.4-6.2,12-12,17.3-17.8c5.4-5.9,10.6-12.1,16-19.1c5-9.8,3.5-22.4-3.8-30.2l-11.4-12.3c-20.3-24-26.4-57.4-15.9-87
			c10.5-29.6,36.2-51.7,67.1-57.5l0.6-0.1l16.1-2.3c10.6-1.5,19.7-10.3,21.9-21c0.1-8.1,0-16.5-0.5-24.8c-0.5-8.5-1.1-16.8-2.2-24.8
			c-3.4-10.5-13.4-18.3-24-18.6l-16.8-0.7c-31.3-2.6-59.2-21.9-72.7-50.3c-13.5-28.3-10.9-62.1,6.9-88.1l0.3-0.5l9.7-13
			c6.4-8.6,6.6-21.1,0.7-30.4c-6.2-6.4-12-12-17.8-17.3c-5.9-5.4-12.2-10.6-19.1-16c-9.8-5-22.4-3.4-30.2,3.8l-12.3,11.4
			c-24,20.3-57.4,26.4-87,15.9c-29.6-10.5-51.7-36.2-57.5-67.1l-0.1-0.6l-2.3-16c-1.5-10.6-10.3-19.7-21-21.9
			c-7.8-0.2-15.9-0.1-24.9,0.3c-8.5,0.5-16.8,1.1-24.7,2.2c-10.5,3.4-18.3,13.4-18.6,24.1l-0.7,16.8c-2.6,31.3-21.9,59.2-50.3,72.7
			c-28.2,13.5-62.1,11-88.1-6.7l-0.3-0.2l-13-9.8c-8.5-6.4-21.1-6.6-30.4-0.7c-5.8,5.6-11.5,11.5-17.3,17.8
			c-5.4,5.9-10.6,12.1-16,19.1c-5,9.8-3.4,22.4,3.8,30.2l11.4,12.3c20.3,24,26.4,57.4,15.9,87c-10.5,29.6-36.2,51.5-67.1,57.5
			l-0.6,0.1l-16.1,2.3c-10.6,1.5-19.7,10.3-21.9,21c-0.1,8.1,0,16.5,0.5,24.9s1.1,16.8,2.2,24.8c3.4,10.5,13.4,18.3,24,18.6
			l16.8,0.6c31.4,2.6,59.3,21.9,72.7,50.3c13.5,28.3,10.9,62.1-6.7,88l-0.3,0.6l-9.8,13c-6.4,8.6-6.6,21.1-0.7,30.4
			c6.2,6.4,12,12,17.8,17.3c5.9,5.4,12.1,10.6,19.1,16c9.8,5,22.4,3.4,30.2-3.8l12.3-11.4c24.1-20.2,57.4-26.4,87-15.9
			c29.5,10.5,51.5,36.1,57.5,67l0.1,0.6l2.3,16.1C485.8,853,494.6,862.1,505.4,864.3z"/>
	</g>
</g>
</svg>
