<?xml version="1.0" encoding="utf-8"?>
<!-- Generator: Adobe Illustrator 19.0.0, SVG Export Plug-In . SVG Version: 6.00 Build 0)  -->
<svg version="1.1" id="图层_1" xmlns="http://www.w3.org/2000/svg" xmlns:xlink="http://www.w3.org/1999/xlink" x="0px" y="0px"
	 viewBox="0 0 1024 1024" style="enable-background:new 0 0 1024 1024;" xml:space="preserve">
<style type="text/css">
	.st0{fill:#CACACA;}
	.st1{fill:#5E5E5E;}
	.st2{fill:#8D8D8D;}
</style>
<g id="XMLID_192_">
	<circle id="XMLID_196_" class="st0" cx="512" cy="512" r="512"/>
	<path id="XMLID_195_" class="st1" d="M559.4,574.2v-0.2c0-23.3-18.9-42.2-42.2-42.2H400.3l0,0c-0.5,0-0.9,0-1.4,0h-0.2
		c-23.3,0-42.2,18.9-42.2,42.2v122.6c0,23.3,18.9,42.2,42.2,42.2h0.2c23.3,0,42.2-18.9,42.2-42.2v-11.4
		c43,23.7,92.3,37.1,144.9,37.1c166.1,0,300.6-134.6,300.6-300.6c0-166.1-134.6-300.6-300.6-300.6c-84.3,0-160.5,34.7-215.1,90.6
		l0.1,0.1c-7.9,7.4-12.8,17.9-12.8,29.6c0,22.4,18.2,40.7,40.7,40.7c11.7,0,22.2-4.9,29.6-12.8l0.1,0.1
		c39.9-41.1,95.7-66.7,157.4-66.7c121,0,219.2,98.2,219.2,219.2s-98.2,219.2-219.2,219.2c-36.5,0-70.7-8.9-101-24.6h32.2
		C540.6,616.2,559.4,597.4,559.4,574.2z"/>
	<path id="XMLID_194_" class="st2" d="M461,452.7v0.2c0,23.3,18.9,42.2,42.2,42.2h116.9l0,0c0.5,0,0.9,0,1.4,0h0.2
		c23.3,0,42.2-18.9,42.2-42.2V330.3c0-23.3-18.9-42.2-42.2-42.2h-0.2c-23.3,0-42.2,18.9-42.2,42.2v11.4
		c-43-23.7-92.3-37.1-144.9-37.1c-166.1,0-300.6,134.6-300.6,300.6c0,166.1,134.6,300.6,300.6,300.6c84.3,0,160.5-34.7,215.1-90.6
		l-0.1-0.1c7.9-7.4,12.8-17.9,12.8-29.6c0-22.4-18.2-40.7-40.7-40.7c-11.7,0-22.2,4.9-29.6,12.8l-0.1-0.1
		c-39.9,41.1-95.7,66.7-157.4,66.7c-121,0-219.2-98.2-219.2-219.2s98.2-219.2,219.2-219.2c36.5,0,70.7,8.9,101,24.6h-32.2
		C479.9,410.5,461,429.4,461,452.7z"/>
</g>
</svg>
