<?xml version="1.0" encoding="utf-8"?>
<!-- Generator: Adobe Illustrator 19.0.0, SVG Export Plug-In . SVG Version: 6.00 Build 0)  -->
<svg version="1.1" id="图层_1" xmlns="http://www.w3.org/2000/svg" xmlns:xlink="http://www.w3.org/1999/xlink" x="0px" y="0px"
	 viewBox="0 0 1024 1024" style="enable-background:new 0 0 1024 1024;" xml:space="preserve">
<style type="text/css">
	.st0{fill:#67C5F4;}
	.st1{fill:#A2A0A0;}
	.st2{fill:#454551;}
	.st3{fill:#38393E;}
	.st4{fill:#DCDCDC;}
	.st5{fill:#ECECEC;}
	.st6{fill:#ADACAD;}
</style>
<g id="XMLID_272_">
	<circle id="XMLID_281_" class="st0" cx="512" cy="512" r="512"/>
	<polygon id="XMLID_280_" class="st1" points="196.5,817.4 327.8,479.2 684.1,479.2 824.1,817.4 	"/>
	<path id="XMLID_279_" class="st2" d="M789.4,488.7H234.6c-40.5,0-73.4-32.8-73.4-73.4V267c0-40.5,32.8-73.4,73.4-73.4h554.7
		c40.5,0,73.4,32.8,73.4,73.4v148.5C862.6,455.9,829.8,488.7,789.4,488.7z"/>
	<path id="XMLID_278_" class="st3" d="M759,423.2H265c-14.4,0-26.1-11.7-26.1-26.1v-66.1c0-14.4,11.7-26.1,26.1-26.1H759
		c14.4,0,26.1,11.7,26.1,26.1v66.1C785,411.4,773.4,423.2,759,423.2z"/>
	<polygon id="XMLID_277_" class="st4" points="186.1,763.9 321.7,414.5 689.8,414.5 834.5,763.9 	"/>
	<polygon id="XMLID_276_" class="st5" points="166.1,712.1 310.2,341.1 700.9,341.1 854.5,712.1 	"/>
	<polygon id="XMLID_275_" class="st6" points="707,355.9 700.9,341.1 310.2,341.1 304.5,355.9 	"/>
	<polygon id="XMLID_274_" class="st1" points="474.9,648.3 530.2,648.3 530.2,545.6 642.3,545.6 642.3,513.7 538.7,513.7 
		538.7,500.8 633.6,414.5 562.1,414.5 510.3,475.8 435.2,414.5 380,414.5 477.5,497.4 477.5,509.4 367.9,509.4 367.9,543.1 
		474.9,543.1 	"/>
</g>
</svg>
