<?xml version="1.0" encoding="utf-8"?>
<!-- Generator: Adobe Illustrator 19.0.0, SVG Export Plug-In . SVG Version: 6.00 Build 0)  -->
<svg version="1.1" id="图层_1" xmlns="http://www.w3.org/2000/svg" xmlns:xlink="http://www.w3.org/1999/xlink" x="0px" y="0px"
	 viewBox="0 0 1024 1024" style="enable-background:new 0 0 1024 1024;" xml:space="preserve">
<style type="text/css">
	.st0{fill:#0093F1;}
</style>
<g id="XMLID_14_">
	<path id="XMLID_38_" class="st0" d="M512,0C229.2,0,0,229.2,0,512c0,282.8,229.2,512,512,512c282.8,0,512-229.2,512-512
		C1024,229.2,794.8,0,512,0z M558.2,598.8c13.4,12.4,21.8,30.2,21.8,49.9c0,37.6-30.4,68-68,68c-19.7,0-37.5-8.4-49.9-21.8
		c-23.3-20.1-53.6-32.2-86.8-32.2s-63.5,12.1-86.8,32.2c-1.3,1.4-2.7,2.8-4.2,4.2c-12.1,11-28.1,17.7-45.7,17.7s-33.6-6.7-45.7-17.7
		c-3.2-2.9-6.2-6.2-8.8-9.6c-0.7-0.9-1.3-1.8-1.9-2.7c-1.2-1.8-2.4-3.7-3.4-5.6c-2.1-3.9-3.8-7.9-5.1-12.2c-2-6.4-3.1-13.2-3.1-20.2
		v0c0-7,1.1-13.8,3.1-20.2c1.3-4.3,3.1-8.3,5.1-12.2c1-1.9,2.2-3.8,3.4-5.6c0.6-0.9,1.2-1.8,1.9-2.7c1.3-1.7,2.7-3.4,4.2-5
		c1.9-2.1,3.9-4,6.1-5.9h0c19.2-23.1,30.7-52.7,30.7-85.1c0-32.4-11.5-62-30.7-85.1c-14.5-12.5-23.7-31-23.7-51.6
		c0-37.6,30.4-68,68-68s68,30.4,68,68c0,19.7-8.4,37.5-21.8,49.9c-20.1,23.3-32.2,53.6-32.2,86.8c0,33.2,12.1,63.5,32.2,86.8
		c1.4,1.3,2.8,2.7,4.2,4.2c0.4,0.5,0.9,1,1.3,1.5c23.1,19.2,52.7,30.7,85.1,30.7c32.4,0,62-11.5,85.1-30.7c2.3-2.6,4.7-5.1,7.4-7.4
		l0,0c19.2-23.1,30.7-52.7,30.7-85.1c0-32.4-11.5-62-30.7-85.1c-14.5-12.5-23.7-31-23.7-51.6c0-37.6,30.4-68,68-68s68,30.4,68,68
		c0,19.7-8.4,37.5-21.8,49.9C538.1,448.5,526,478.8,526,512C526,545.2,538.1,575.5,558.2,598.8z M648.7,580c-37.6,0-68-30.4-68-68
		c0-37.6,30.4-68,68-68c37.5,0,68,30.4,68,68C716.7,549.5,686.3,580,648.7,580z M831.6,598.8c1.4,1.3,2.8,2.7,4.2,4.2
		c1.5,1.6,2.9,3.3,4.2,5c0.7,0.9,1.3,1.8,1.9,2.7c1.2,1.8,2.4,3.7,3.4,5.6c2.1,3.9,3.8,7.9,5.1,12.2c2,6.4,3.1,13.2,3.1,20.2v0
		c0,7-1.1,13.8-3.1,20.2c-1.3,4.3-3.1,8.3-5.1,12.2c-1,1.9-2.2,3.8-3.4,5.6c-0.6,0.9-1.2,1.8-1.9,2.7c-2.6,3.5-5.5,6.7-8.8,9.6
		c-12.1,11-28.1,17.7-45.7,17.7c-17.6,0-33.6-6.7-45.7-17.7c-3.2-2.9-6.2-6.2-8.8-9.6c-0.7-0.9-1.3-1.8-1.9-2.7
		c-1.2-1.8-2.4-3.7-3.4-5.6c-2.1-3.9-3.8-7.9-5.1-12.2c-2-6.4-3.1-13.2-3.1-20.2v0c0-7,1.1-13.8,3.1-20.2c1.3-4.3,3.1-8.3,5.1-12.2
		c1-1.9,2.2-3.8,3.4-5.6c0.6-0.9,1.2-1.8,1.9-2.7c1.3-1.7,2.7-3.4,4.2-5c1.9-2.1,3.9-4,6.1-5.9c19.2-23.1,30.7-52.7,30.7-85.1
		c0-32.4-11.5-62-30.7-85.1c-14.5-12.5-23.7-31-23.7-51.6c0-37.6,30.4-68,68-68c37.5,0,68,30.4,68,68c0,19.7-8.4,37.5-21.8,49.9
		c-20.1,23.3-32.2,53.6-32.2,86.8C799.4,545.2,811.5,575.5,831.6,598.8z"/>
</g>
</svg>
