<?xml version="1.0" encoding="utf-8"?>
<!-- Generator: Adobe Illustrator 19.0.0, SVG Export Plug-In . SVG Version: 6.00 Build 0)  -->
<svg version="1.1" id="图层_1" xmlns="http://www.w3.org/2000/svg" xmlns:xlink="http://www.w3.org/1999/xlink" x="0px" y="0px"
	 viewBox="0 0 1024 1024" style="enable-background:new 0 0 1024 1024;" xml:space="preserve">
<style type="text/css">
	.st0{fill:#CACACA;}
	.st1{fill:#FFFFFF;}
	.st2{fill:#F8F8F8;}
	.st3{fill:#8D8D8D;}
	.st4{fill:#5E5E5E;}
</style>
<g id="XMLID_151_">
	<circle id="XMLID_150_" class="st0" cx="512" cy="512" r="512"/>
	<path id="XMLID_149_" class="st1" d="M512,149.8c-65.6,63.8-186.3,106.5-324.5,106.5v152.5c0,255.7,141,467.1,324.5,502.2
		c183.4-35,324.5-246.5,324.5-502.2V256.3C698.3,256.3,577.6,213.6,512,149.8z"/>
	<path id="XMLID_148_" class="st2" d="M511.5,150.3v760.6c0.2,0,0.3,0.1,0.5,0.1c183.4-35,324.5-246.5,324.5-502.2V256.3
		c-138.1,0-258.7-42.7-324.5-106.5C511.9,150.1,511.7,150.2,511.5,150.3z"/>
	<path id="XMLID_147_" class="st3" d="M512,242.6c-49.6,48.2-140.9,80.5-245.4,80.5v115.3c0,193.4,106.6,353.3,245.4,379.7
		c138.6-26.5,245.4-186.4,245.4-379.7V323.2C652.9,323.2,561.6,290.9,512,242.6z"/>
	<path id="XMLID_144_" class="st4" d="M512,218.1c-53.8,52.3-152.9,87.4-266.3,87.4v125.1c0,209.8,115.8,383.4,266.3,412.1
		c150.5-28.7,266.3-202.3,266.3-412.1V305.5C664.9,305.5,565.8,270.4,512,218.1z M757.4,438.5c0,193.4-106.6,353.3-245.4,379.7
		c-138.6-26.5-245.4-186.4-245.4-379.7V323.2c104.5,0,195.7-32.3,245.4-80.5c49.6,48.2,140.9,80.5,245.4,80.5V438.5z"/>
	<path id="XMLID_143_" class="st4" d="M511.5,243.1v575c0.2,0,0.3,0.1,0.5,0.1c138.6-26.5,245.4-186.4,245.4-379.7V323.2
		c-104.5,0-195.7-32.3-245.4-80.5C511.9,242.9,511.7,243,511.5,243.1z"/>
	<polygon id="XMLID_135_" class="st1" points="712.1,451.3 675.5,406.6 482.9,564.2 391.9,453 347.1,489.6 438.2,600.8 438.1,600.9 
		474.6,645.7 474.7,645.6 474.9,645.7 519.5,609 519.5,608.9 	"/>
	<polygon id="XMLID_131_" class="st2" points="675.5,406.6 512,540.3 512,615.2 519.5,609 519.5,608.9 712.1,451.3 	"/>
</g>
</svg>
