<?xml version="1.0" encoding="utf-8"?>
<!-- Generator: Adobe Illustrator 19.0.0, SVG Export Plug-In . SVG Version: 6.00 Build 0)  -->
<svg version="1.1" id="图层_1" xmlns="http://www.w3.org/2000/svg" xmlns:xlink="http://www.w3.org/1999/xlink" x="0px" y="0px"
	 viewBox="0 0 1024 1024" style="enable-background:new 0 0 1024 1024;" xml:space="preserve">
<style type="text/css">
	.st0{fill-rule:evenodd;clip-rule:evenodd;fill:#CACACA;}
	.st1{fill-rule:evenodd;clip-rule:evenodd;fill:#DCDCDC;}
	.st2{fill-rule:evenodd;clip-rule:evenodd;fill:#5E5E5E;}
</style>
<g id="XMLID_65_">
	<circle id="XMLID_344_" class="st0" cx="512" cy="512" r="512"/>
	<path id="XMLID_343_" class="st1" d="M187.7,529.1c0-75.4,61.1-136.5,136.4-136.5h273.3c75.3,0,136.4,61.2,136.4,136.5v85.4
		c0,75.4-61.1,136.5-136.4,136.5H324.1c-75.3,0-136.4-61.2-136.4-136.5V529.1z"/>
	<path id="XMLID_329_" class="st2" d="M793.8,664.9V383.8c0-28.2-22.8-51.1-51-51.1H263.9c-2.7,0-5.3,0.3-7.9,0.7
		c3.8-24.5,24.8-43.2,50.3-43.2h478.9c28.1,0,51,22.9,51,51.1v281.1c0,25.6-18.7,46.7-43.2,50.5
		C793.5,670.2,793.8,667.5,793.8,664.9z M703.7,540.7H445c-2.8,0-5.1-3.4-5.1-7.6c0-4.1,2.2-7.5,5.1-7.5h258.7c2.8,0,5,3.4,5,7.5
		C708.7,537.3,706.5,540.7,703.7,540.7z M703.7,570.8H445c-2.8,0-5.1-3.4-5.1-7.5c0-4.2,2.2-7.5,5.1-7.5h258.7c2.8,0,5,3.4,5,7.5
		C708.7,567.4,706.5,570.8,703.7,570.8z M703.7,630.1H445c-2.8,0-5.1-3.4-5.1-7.5c0-4.2,2.2-7.5,5.1-7.5h258.7c2.8,0,5,3.3,5,7.5
		C708.7,626.7,706.5,630.1,703.7,630.1z M703.7,660.2H445c-2.8,0-5.1-3.4-5.1-7.6c0-4.2,2.2-7.5,5.1-7.5h258.7c2.8,0,5,3.4,5,7.5
		C708.7,656.9,706.5,660.2,703.7,660.2z M703.7,690.4H445c-2.8,0-5.1-3.4-5.1-7.5c0-4.2,2.2-7.6,5.1-7.6h258.7c2.8,0,5,3.4,5,7.6
		C708.7,687,706.5,690.4,703.7,690.4z M307.7,664.5c-54.2,0-98.2,80.4-98.2-3.3c0-65.5,26.9-121.3,64.5-142.5
		c9.1,7.6,20.8,12.2,33.6,12.2c12.8,0,24.5-4.6,33.6-12.2c37.7,21.2,64.5,77,64.5,142.5C405.8,744.9,361.9,664.5,307.7,664.5
		L307.7,664.5z M307.7,426.5c24.7,0,44.7,20,44.7,44.8c0,24.7-20,44.7-44.7,44.7C283,516,263,496,263,471.3
		C263,446.5,283,426.5,307.7,426.5z M510.4,441.2h127.8c1.4,0,2.4,4.8,2.4,10.6c0,5.9-1.1,10.6-2.4,10.6H510.4
		c-1.4,0-2.5-4.8-2.5-10.6C507.9,446,509,441.2,510.4,441.2z M221.7,375c-28.2,0-51,22.9-51,51.1v281.1c0,28.2,22.9,51.1,51,51.1
		h478.9c28.2,0,51-22.9,51-51.1V426.1c0-28.2-22.8-51.1-51-51.1H221.7z M301.5,540c-17.7-0.2-28-12.9-28-12.9l14.2,50.6
		C287.7,577.7,288.3,551.1,301.5,540z M313.9,540c13.2,11.1,13.8,37.7,13.8,37.7l14.2-50.6C341.8,527.1,331.6,539.8,313.9,540z
		 M319.7,564.3c0-10.2-5.2-18.5-11.6-18.5c-6.4,0-11.6,8.3-11.6,18.5c0,5.8,1.7,11,4.3,14.4l0.2,1.4l-7.3,62.1l14.2,11l14.7-11
		l-8.2-62.2C317.5,576.6,319.7,570.9,319.7,564.3L319.7,564.3z"/>
</g>
</svg>
