<?xml version="1.0" encoding="utf-8"?>
<!-- Generator: Adobe Illustrator 19.0.0, SVG Export Plug-In . SVG Version: 6.00 Build 0)  -->
<svg version="1.1" id="图层_1" xmlns="http://www.w3.org/2000/svg" xmlns:xlink="http://www.w3.org/1999/xlink" x="0px" y="0px"
	 viewBox="214 -92.1 1024 1024" style="enable-background:new 214 -92.1 1024 1024;" xml:space="preserve">
<style type="text/css">
	.st0{fill:#F4932F;}
</style>
<g>
	<path class="st0" d="M720.1,379.9c22.1-0.6,27.7,0.6,62.7-11.7s72.5-91,35-134c-37.4-43-149.3-31.3-149.3-31.3v177
		C668.5,379.9,698,380.5,720.1,379.9z"/>
	<path class="st0" d="M785.9,430.3c-41.8-9.8-117.4-3.5-117.4-3.5v183.7c9.8,17.2,41.1,33.8,99.3,30.7s96.1-52.3,99.2-108.8
		C870.1,475.8,827.7,440.2,785.9,430.3z"/>
	<path class="st0" d="M726-92.1c-282.8,0-512,229.2-512,512s229.2,512,512,512s512-229.2,512-512S1008.8-92.1,726-92.1z
		 M908.3,637.9c-40.6,31.3-99.6,43.6-109.4,43.6v83h-53.5v-78.7h-91v78.7h-53.5v-77.4h-95.3c0,0-15.4-2.4-14.8-22.7
		c0.6-20.3,21.5-15.4,21.5-15.4s59.6-4.3,59.6-23.4c0-19,0-409.3,0-409.3s-7.3-9.8-52.2-9.8c-25.2,0-33.3,0-35.6,0v-39.9l117.4-2.5
		V75h52.2v83.6h91.6V75h52.9v87.3c0,0,72.5,6.8,106.9,52.9c34.4,46,20.9,101.4,12.9,115.5c-8,14.2-44.3,48.6-57.2,52.9
		c0,0,74.4,24,99,92.2C984.4,544,948.7,606.7,908.3,637.9z"/>
</g>
</svg>
