<?xml version="1.0" encoding="utf-8"?>
<!-- Generator: Adobe Illustrator 19.0.0, SVG Export Plug-In . SVG Version: 6.00 Build 0)  -->
<svg version="1.1" id="图层_1" xmlns="http://www.w3.org/2000/svg" xmlns:xlink="http://www.w3.org/1999/xlink" x="0px" y="0px"
	 viewBox="0 0 1024 1024" style="enable-background:new 0 0 1024 1024;" xml:space="preserve">
<style type="text/css">
	.st0{fill:#0093F1;}
	.st1{fill:#6BBAF2;}
	.st2{fill:#196FAC;}
</style>
<g>
	<path id="XMLID_1_" class="st0" d="M512,0C229.2,0,0,229.2,0,512s229.2,512,512,512s512-229.2,512-512S794.8,0,512,0z M512,969.8
		c-252.8,0-457.8-205-457.8-457.8S259.2,54.2,512,54.2s457.8,205,457.8,457.8S764.8,969.8,512,969.8z"/>
	<g id="XMLID_367_">
		<path id="XMLID_376_" class="st1" d="M719.5,519.2L511.2,129.4L293.3,533.2l219.4,135.5L727,533.2l-0.5-1L719.5,519.2z
			 M506.8,429.5l-192.2,82.2l192.2-356.2V429.5z M515.3,428.2v-273l191.5,358.4L515.3,428.2z"/>
		<path id="XMLID_386_" class="st0" d="M719.5,519.2L511.2,129.4l-0.2,0.3v538l1.7,1L727,533.2l-0.5-1L719.5,519.2z M515.3,428.2
			v-273l191.5,358.4L515.3,428.2z"/>
		<polygon id="XMLID_371_" class="st2" points="727,533.2 512.7,581.9 293.3,533.2 512.7,668.7 		"/>
		<path id="XMLID_381_" class="st1" d="M511.2,707.1L309.4,571.5l201.9,323.1l219.4-333.9L511.2,707.1z M700.8,590.9L515.3,872.9
			V714.5L700.8,590.9z M506.8,714.4v157L338,600.9L506.8,714.4z"/>
		<path id="XMLID_383_" class="st0" d="M511.9,893.7l218.8-333L511.9,706.6V893.7z M700.8,590.9L515.3,872.9V714.5L700.8,590.9z"/>
	</g>
</g>
</svg>
