<svg width="14px" height="12px" viewBox="0 6 14 12" version="1.1" xmlns="http://www.w3.org/2000/svg"
     xmlns:xlink="http://www.w3.org/1999/xlink">
  <!-- Generator: Sketch 40.3 (33839) - http://www.bohemiancoding.com/sketch -->
  <desc>Created with Sketch.</desc>
  <defs></defs>
  <path
    d="M11.4937719,17.8847499 L2.4986163,17.8847499 C1.12136889,17.8847499 0,16.7744943 0,15.4087895 L0,8.47596045 C0,7.11122159 1.12136889,6 2.4986163,6 L11.4937719,6 C12.8720563,6 13.9924711,7.11122159 13.9924711,8.47596045 L13.9924711,15.4087895 C13.9924711,16.7744943 12.8720563,17.8847499 11.4937719,17.8847499 L11.4937719,17.8847499 Z M2.4986163,6.9903924 C1.6720563,6.9903924 0.999454815,7.65689516 0.999454815,8.47596045 L0.999454815,15.4087895 C0.999454815,16.2278547 1.6720563,16.8943575 2.4986163,16.8943575 L11.4937719,16.8943575 C12.3203319,16.8943575 12.9929333,16.2278547 12.9929333,15.4087895 L12.9929333,8.47596045 C12.9929333,7.65689516 12.3203319,6.9903924 11.4937719,6.9903924 L2.4986163,6.9903924 L2.4986163,6.9903924 Z"
    id="Fill-1" stroke="none" fill="#494949" fill-rule="evenodd"></path>
  <polygon id="Fill-2" stroke="none" fill="#494949" fill-rule="evenodd"
           points="6.50643259 14.1486321 0 7.7001475 0.706574815 7 6.50643259 12.7482344 12.3063111 7 13.0129481 7.7001475"></polygon>
</svg>
