
<svg width="14px" height="15px" viewBox="0 4 14 15" version="1.1" xmlns="http://www.w3.org/2000/svg" xmlns:xlink="http://www.w3.org/1999/xlink">
  <!-- Generator: Sketch 40.3 (33839) - http://www.bohemiancoding.com/sketch -->
  <desc>Created with Sketch.</desc>
  <defs></defs>
  <path d="M12.9690898,12.4499646 C13.1794764,13.0960271 13.3198069,13.6282412 13.3898463,14.0462431 C13.4599528,14.4643177 13.4775298,14.7112287 13.4425101,14.787358 L13.3898463,14.9296457 C13.3198069,14.9678741 13.2233433,15.0058296 13.1004555,15.0437851 C12.9779538,15.0817407 12.8288264,15.0817407 12.6534762,15.0437851 C12.5657928,15.0246618 12.4476224,14.9678741 12.298495,14.872858 C12.149569,14.7778237 12.0225514,14.6827893 11.9172909,14.5877732 L11.7333453,14.4452672 C11.6632388,14.6732732 11.5755721,14.8916902 11.4703116,15.1006456 L11.0495719,15.8416878 C11.3826281,15.9558273 11.6456618,16.1267726 11.8386057,16.3547786 C11.9437151,16.4686451 12.0182872,16.5827846 12.062087,16.6969422 C12.1059539,16.8108088 12.1278622,16.8963087 12.1278622,16.9535877 L12.1278622,17.0674542 C12.1278622,17.4475734 11.8910681,17.7514904 11.4178493,17.9794964 C11.1195945,18.1313912 10.7910542,18.2454578 10.431557,18.3213689 C10.0722612,18.397571 9.79611612,18.4355265 9.60337362,18.4355265 L9.28767615,18.4355265 C9.2176368,18.4734638 8.81454124,18.4164032 8.07810407,18.2645812 C7.95540091,18.2454578 7.83702905,18.2121967 7.72312278,18.1646523 C7.60921651,18.1171624 7.49084465,18.0698363 7.36815828,18.0223464 C7.24565658,17.9748747 7.15777164,17.9415408 7.10512462,17.9224175 L6.73703194,17.8653569 C6.63190577,17.8465065 6.50901795,17.8653569 6.36893926,17.9224175 C6.35129512,17.9224175 6.22427746,17.9748747 5.98746659,18.0792069 C5.75087395,18.1837756 5.55361549,18.2454578 5.39589266,18.2645812 L4.1863038,18.4355265 C3.44986662,18.4543587 2.74012229,18.3025367 2.05614747,17.9794964 C1.91559872,17.9224175 1.79724365,17.8512009 1.70116619,17.7657009 C1.6047026,17.680201 1.53420998,17.5947556 1.49079634,17.5090555 C1.44692941,17.4235373 1.41577097,17.3476263 1.39878156,17.2810313 C1.38120457,17.2144363 1.37235732,17.1620519 1.37235732,17.1240236 L1.34620169,17.0672359 C1.31071195,16.8583532 1.40737699,16.6207401 1.63539098,16.3547786 C1.68805479,16.2976998 1.74929725,16.2409121 1.81953805,16.1838514 C1.88937594,16.1267726 1.9596671,16.0795011 2.0299079,16.0415456 C2.09974579,16.0033171 2.16531954,15.9653616 2.2269649,15.9274061 C2.28840881,15.8894506 2.33615376,15.8706184 2.37164349,15.8706184 L2.42422336,15.8419607 C2.26651732,15.5948314 2.1257839,15.3479933 2.00348366,15.100864 L1.74051715,14.444976 C1.31976066,14.8059719 1.01286007,15.0056295 0.820134363,15.043585 C0.626938589,15.0624172 0.473933177,15.0624172 0.359842242,15.043585 C0.245533064,15.0244617 0.171363883,14.9960223 0.136344211,14.9580668 L0.0836803999,14.9294273 C-0.109045311,14.7587003 0.0311005281,13.9321764 0.504436889,12.4499646 C0.574274778,12.2601871 0.639848526,12.0794344 0.701493893,11.9085073 C0.762937804,11.7377803 0.823794137,11.5907982 0.88564096,11.466906 C0.946883416,11.3434506 1.0079412,11.2293839 1.06958657,11.1250335 C1.13109763,11.0209197 1.18349284,10.9354016 1.22735976,10.8683881 C1.27070626,10.8017203 1.31025868,10.7500455 1.34573163,10.7115987 C1.3807513,10.6736432 1.40699087,10.6449855 1.42461822,10.6261533 L1.45105925,10.5975138 C1.45105925,10.5218212 1.4465265,10.4169795 1.43793107,10.2840079 C1.42888236,10.1515093 1.43341511,9.88967817 1.45105925,9.50031578 C1.46823333,9.11131731 1.51250316,8.7263764 1.5825425,8.34605711 C1.65238039,7.96593796 1.79697504,7.52435491 2.0163936,7.02085308 C2.23556034,6.51776973 2.51170539,6.05662668 2.8447784,5.63857022 C3.26553489,5.10684739 3.80018085,4.70789605 4.44888418,4.44144329 C5.0971846,4.1754818 5.64109752,4.03297578 6.07921275,4.01385247 L6.73656188,4.01385247 C6.77158155,4.03297578 6.86379778,4.03297578 7.01272372,4.01385247 C7.16164966,3.99523862 7.39392779,4.01385247 7.70935666,4.07093129 C8.02503734,4.12799192 8.34066767,4.20390294 8.65616368,4.29893727 C8.97179401,4.3943901 9.31371426,4.5553826 9.68160549,4.78338858 C10.0494967,5.01139456 10.3653285,5.29640659 10.6281607,5.63835188 C10.9612337,6.05642653 11.2373788,6.51243849 11.456344,7.00642416 C11.6756954,7.50082832 11.8201054,7.95172739 11.8904134,8.36026768 C11.9604359,8.76924465 12.0087684,9.14394158 12.035008,9.48610521 C12.0614323,9.82797772 12.065965,10.0944487 12.0483209,10.2840079 L12.0221484,10.5975138 C12.3556076,10.9016492 12.6711036,11.5195088 12.9690898,12.4499646 L12.9690898,12.4499646 Z M3.79160221,16.3689892 C4.59760867,17.1955313 5.57983828,17.6086932 6.73676333,17.6086932 C7.893957,17.6086932 8.87553188,17.1955313 9.6820084,16.3689892 C10.4884849,15.5424652 10.8915805,14.5400104 10.8915805,13.3620068 C10.8915805,12.8680211 10.812761,12.3835698 10.6547864,11.9085073 C9.55032369,12.87761 8.24440554,13.3620068 6.73676333,13.3620068 C5.22873501,13.3620068 3.92308547,12.87761 2.81855561,11.9085073 C2.66083278,12.3835698 2.58194619,12.8680211 2.58194619,13.3620068 C2.58194619,14.5402833 2.98531036,15.5424652 3.79160221,16.3689892 L3.79160221,16.3689892 Z M4.9222877,9.51452636 C4.11607978,9.83778502 3.72988969,10.084423 3.76536264,10.2555685 C3.76536264,10.3695078 3.8614401,10.4933818 4.05456872,10.6261533 C4.10721574,10.6645455 4.16375757,10.7020643 4.22538615,10.7400198 C4.28689722,10.7784666 4.34770318,10.8071243 4.40933176,10.8255198 C4.47084283,10.8445703 4.52777078,10.8587809 4.58016598,10.8683881 C4.63282979,10.8781226 4.67624344,10.8825259 4.71171639,10.8825259 L4.7643802,10.8825259 C4.71171639,10.8255198 4.65905258,10.7400198 4.60659022,10.6261533 L4.50134654,10.3410685 C4.83394948,10.682941 5.25470597,10.949412 5.76358243,11.1389712 C5.92130526,11.2148822 6.08309077,11.2673212 6.25004697,11.2956878 C6.41661705,11.3244 6.53505607,11.338556 6.60507862,11.338556 L6.73656188,11.3101895 C7.03461521,11.3485635 7.35890812,11.2915028 7.70935666,11.1391895 C7.93755532,11.0635514 8.1565206,10.958728 8.36690724,10.8257382 C8.57727709,10.693185 8.72640448,10.5791001 8.81407118,10.4838656 L8.97179401,10.3412869 C8.93657288,10.4552262 8.90155321,10.550679 8.86653353,10.6263717 L8.7088275,10.882817 C9.00708228,10.8448615 9.2434231,10.7593615 9.41897473,10.6263717 C9.50664143,10.5692928 9.57674793,10.512214 9.62934459,10.4554263 C9.6820084,10.3983657 9.70823118,10.3513125 9.70823118,10.3128475 L9.70823118,10.2555685 C9.70823118,10.2369547 9.69963575,10.2085154 9.6820084,10.1701414 C9.66443141,10.1321858 9.56363653,10.0517988 9.37969092,9.92790661 C9.19574531,9.80445113 8.9193988,9.66705801 8.55150758,9.5147447 C8.32349359,9.43905203 8.05619579,9.37216591 7.74936235,9.31515986 C7.44244498,9.25809923 7.2015882,9.22965989 7.02622124,9.22965989 L6.73703194,9.20123875 C6.05324179,9.2198526 5.44835502,9.32469423 4.9222877,9.51452636 L4.9222877,9.51452636 Z M5.42213224,5.92343668 C5.15909857,5.92343668 4.93973038,6.06153942 4.76476632,6.33659859 C4.58941615,6.61209445 4.50173266,6.94934533 4.50173266,7.34829667 C4.50173266,7.53834714 4.52370809,7.72350307 4.56750787,7.90396459 C4.61092151,8.08499017 4.67669672,8.23659386 4.76476632,8.35997655 C4.85244981,8.4839415 4.95279141,8.58357926 5.06715095,8.65929013 C5.18099007,8.73518295 5.29942908,8.77313846 5.42213224,8.77313846 C5.6851659,8.77313846 5.90431585,8.63554519 6.07968282,8.35997655 C6.25456293,8.08499017 6.34269969,7.747248 6.34269969,7.34829667 C6.34269969,7.15873747 6.32033814,6.97358155 6.27694128,6.79262875 C6.23312472,6.61209445 6.16734951,6.46049076 6.07986748,6.33659859 C5.99179788,6.21314311 5.89140591,6.11343257 5.77736534,6.03730321 C5.66278756,5.96182888 5.54436533,5.92343668 5.42213224,5.92343668 L5.42213224,5.92343668 Z M5.7375611,7.91846628 C5.47452744,7.91846628 5.34304419,7.7288343 5.34304419,7.34829667 C5.34304419,6.96846865 5.47452744,6.77839998 5.7375611,6.77839998 C6.00059477,6.77839998 6.13187657,6.96846865 6.13187657,7.34829667 C6.13214517,7.72861596 6.00059477,7.91846628 5.7375611,7.91846628 L5.7375611,7.91846628 Z M8.70902895,6.33659859 C8.53386344,6.06153942 8.3146967,5.92343668 8.05166304,5.92343668 C7.78844471,5.92343668 7.56947943,6.06153942 7.39411246,6.33659859 C7.21876228,6.61209445 7.1310788,6.94934533 7.1310788,7.34829667 C7.1310788,7.747248 7.21856082,8.08499017 7.39411246,8.35997655 C7.56927797,8.63554519 7.78844471,8.77313846 8.05166304,8.77313846 C8.3146967,8.77313846 8.53366198,8.63554519 8.70902895,8.35997655 C8.88437913,8.08499017 8.97224728,7.747248 8.97224728,7.34829667 C8.97224728,6.94934533 8.88437913,6.61209445 8.70902895,6.33659859 L8.70902895,6.33659859 Z M7.43366488,7.71880866 C7.35477828,7.70019482 7.32388845,7.65243201 7.34146543,7.57630265 C7.37648511,7.38674345 7.44226031,7.21574351 7.53872389,7.06321186 C7.63498602,6.9110987 7.75342504,6.84501317 7.89375554,6.86384537 C8.15678921,6.90229215 8.27062832,7.18737696 8.23560865,7.71880866 C8.2179813,7.79501081 8.17416474,7.83294812 8.10412539,7.83294812 C8.01664337,7.81433427 7.98164048,7.76635312 7.99901601,7.69044211 C8.01664337,7.32988297 7.97284359,7.13939581 7.86771743,7.12029069 C7.72738692,7.10165864 7.63072188,7.272604 7.57825952,7.63338148 C7.56068254,7.70929249 7.51275293,7.73793198 7.43366488,7.71880866 L7.43366488,7.71880866 Z" id="iconfont-qq-(1)" stroke="none" fill="#494949" fill-rule="evenodd"></path>
</svg>
