<svg width="12px" height="15px" viewBox="596 670 12 15" version="1.1" xmlns="http://www.w3.org/2000/svg"
     xmlns:xlink="http://www.w3.org/1999/xlink">
  <!-- Generator: Sketch 40.3 (33839) - http://www.bohemiancoding.com/sketch -->
  <desc>Created with Sketch.</desc>
  <defs></defs>
  <path
    d="M605.903572,679.8088 L602.216128,684.637317 C601.923834,685.015276 601.446676,685.01677 601.155893,684.637317 L597.453768,679.8088 C596.562604,678.770478 596,677.377037 596,675.881411 C596,672.633967 598.553511,670 601.705328,670 C604.856507,670 607.41,672.633967 607.41,675.881411 C607.41,677.417383 606.838653,678.761716 605.903572,679.8088 L605.903572,679.8088 Z M601.705328,672.934094 C600.125458,672.934094 598.845788,674.253891 598.845788,675.881411 C598.845788,677.509514 600.125458,678.828674 601.705328,678.828674 C603.283977,678.828674 604.564212,677.509514 604.564212,675.881411 C604.564212,674.253891 603.283977,672.934094 601.705328,672.934094 L601.705328,672.934094 Z"
    id="iconfont-dingwei-(1)" stroke="none" fill="#494949" fill-rule="evenodd"></path>
</svg>
