<svg width="17px" height="13px" viewBox="597 851 17 13" version="1.1" xmlns="http://www.w3.org/2000/svg"
     xmlns:xlink="http://www.w3.org/1999/xlink">
  <!-- Generator: Sketch 40.3 (33839) - http://www.bohemiancoding.com/sketch -->
  <desc>Created with Sketch.</desc>
  <defs></defs>
  <path
    d="M609.292884,857.328421 C608.647732,857.204546 608.961868,856.866027 608.961868,856.866027 C608.961868,856.866027 609.592969,855.844872 608.835639,855.101692 C607.898889,854.18241 605.618621,855.217365 605.618621,855.217365 C604.74909,855.481518 604.979057,855.096232 605.102504,854.441149 C605.102504,853.667697 604.833188,852.360387 602.513665,853.131052 C600.196948,853.909963 598.208325,856.632031 598.208325,856.632031 C596.825621,858.440369 597.00794,859.838586 597.00794,859.838586 C597.352891,862.926818 600.69899,863.774522 603.301834,863.975504 C606.039324,864.184666 609.736032,863.050624 610.855077,860.716607 C611.977044,858.379802 609.940749,857.455015 609.292884,857.328421 M603.503768,863.105708 C600.785941,863.229537 598.587013,861.894651 598.587013,860.116608 C598.587013,858.3358 600.785941,856.91003 603.503768,856.786155 C606.224402,856.662326 608.426159,857.763285 608.426159,859.538563 C608.426159,861.313911 606.224402,862.984598 603.503768,863.105708 M602.962447,857.955974 C600.227763,858.269704 600.544728,860.779938 600.544728,860.779938 C600.544728,860.779938 600.516741,861.575391 601.276831,861.980006 C602.875473,862.830474 604.52471,862.315738 605.354917,861.261592 C606.187929,860.210188 605.699937,857.644939 602.962447,857.955974 M602.272452,861.481811 C601.762039,861.539614 601.349753,861.25058 601.349753,860.832188 C601.349753,860.416561 601.714321,859.978933 602.22478,859.926683 C602.811014,859.871599 603.192438,860.20194 603.192438,860.623027 C603.195267,861.038654 602.780129,861.424032 602.272452,861.481811 M603.885262,860.135844 C603.711314,860.262461 603.498204,860.245966 603.408401,860.091842 C603.313033,859.943155 603.349506,859.706464 603.523431,859.582635 C603.725342,859.433971 603.935717,859.478066 604.028279,859.62666 C604.118082,859.775324 604.053506,860.003699 603.885262,860.135844 M611.065452,855.872425 C611.068281,855.855884 611.071017,855.842107 611.071017,855.825566 C611.404862,852.883233 608.611283,853.389721 608.611283,853.389721 C608.364435,853.389721 608.165329,853.585106 608.165329,853.832832 C608.165329,854.075076 608.364435,854.270507 608.611283,854.270507 C610.616693,853.835597 610.176374,855.803542 610.176374,855.803542 C610.173569,856.045785 610.37548,856.24117 610.625087,856.24117 C610.846684,856.24117 611.031831,856.081563 611.065452,855.872425 Z M610.299728,851.105167 C609.334922,850.882252 608.339161,851.074941 608.061498,851.127191 C608.039077,851.129978 608.019484,851.149284 607.999868,851.15198 C607.991404,851.154744 607.983011,851.162992 607.983011,851.162992 C607.708177,851.2401 607.509001,851.48778 607.509001,851.782297 C607.509001,852.131874 607.797864,852.420816 608.159672,852.420816 C608.159672,852.420816 608.510281,852.374049 608.748734,852.283233 C608.98429,852.189676 610.986872,852.214442 611.97978,853.849351 C612.521148,855.04389 612.218258,855.842107 612.178956,855.971442 C612.178956,855.971442 612.049967,856.2825 612.049967,856.587983 C612.049967,856.940278 612.338853,857.163285 612.700638,857.163285 C613.000745,857.163285 613.253158,857.121955 613.326081,856.623761 L613.328909,856.623761 C614.400352,853.136465 612.027476,851.498792 610.299728,851.105167"
    id="微博-2-copy" stroke="none" fill="#494949" fill-rule="evenodd"></path>
</svg>
