<?xml version="1.0" encoding="utf-8"?>
<!-- Generator: Adobe Illustrator 19.0.0, SVG Export Plug-In . SVG Version: 6.00 Build 0)  -->
<svg version="1.1" id="图层_1" xmlns="http://www.w3.org/2000/svg" xmlns:xlink="http://www.w3.org/1999/xlink" x="0px" y="0px"
	 viewBox="0 0 1024 1024" style="enable-background:new 0 0 1024 1024;" xml:space="preserve">
<style type="text/css">
	.st0{clip-path:url(#SVGID_2_);fill:#0093F1;}
	.st1{fill-rule:evenodd;clip-rule:evenodd;fill:#FFFFFF;}
</style>
<g>
	<g>
		<defs>
			<path id="SVGID_1_" d="M0,146.7C0,65.7,65.6,0,146.7,0h730.6c81,0,146.7,65.6,146.7,146.7v730.6c0,81-65.6,146.7-146.7,146.7
				H146.7C65.7,1024,0,958.4,0,877.3V146.7z"/>
		</defs>
		<clipPath id="SVGID_2_">
			<use xlink:href="#SVGID_1_"  style="overflow:visible;"/>
		</clipPath>
		<rect x="-365.7" y="-365.7" class="st0" width="1755.4" height="1755.4"/>
	</g>
	<path class="st1" d="M507.9,706.3l-279-161.1c-20.4-11.8-47.5-4.7-59.6,16.2c-11.8,20.4-5.1,47.7,15.8,59.8l303.3,175.1
		c4,2.3,8.2,3.9,12.6,4.8c0.7,0.5,1.4,0.9,2.2,1.3c20.4,11.8,47.9,4.9,60-16.2l291.4-504.7c12.3-21.4,5-47.9-16-60.1
		c-20.4-11.8-47.9-4.9-60,16.2L507.9,706.3z"/>
</g>
</svg>
