<?xml version="1.0" encoding="utf-8"?>
<!-- Generator: Adobe Illustrator 19.0.0, SVG Export Plug-In . SVG Version: 6.00 Build 0)  -->
<svg version="1.1" id="图层_1" xmlns="http://www.w3.org/2000/svg" xmlns:xlink="http://www.w3.org/1999/xlink" x="0px" y="0px"
	 viewBox="0 0 1024 1024" style="enable-background:new 0 0 1024 1024;" xml:space="preserve">
<style type="text/css">
	.st0{fill-rule:evenodd;clip-rule:evenodd;fill:#6BC3CB;}
	.st1{fill-rule:evenodd;clip-rule:evenodd;fill:#955229;}
	.st2{fill-rule:evenodd;clip-rule:evenodd;fill:#3C3C3C;}
	.st3{fill-rule:evenodd;clip-rule:evenodd;fill:#E9EBEA;}
	.st4{fill-rule:evenodd;clip-rule:evenodd;fill:#E7C0A9;}
	.st5{fill-rule:evenodd;clip-rule:evenodd;fill:#F07331;}
	.st6{fill-rule:evenodd;clip-rule:evenodd;fill:#894722;}
	.st7{fill-rule:evenodd;clip-rule:evenodd;fill:#FDD8BA;}
	.st8{fill-rule:evenodd;clip-rule:evenodd;fill:#F3D0B6;}
	.st9{fill-rule:evenodd;clip-rule:evenodd;fill:#464646;}
	.st10{fill-rule:evenodd;clip-rule:evenodd;fill:#D1D0D1;}
</style>
<g id="XMLID_18_">
	<circle id="XMLID_1_" class="st0" cx="512" cy="512" r="512"/>
	<path id="XMLID_29_" class="st1" d="M313.7,356.6c0,0-6.2-65.9,9.2-119s47.6-83.8,77.6-86.4c0,0,28.9-56.8,113.9-52
		c84.9,4.8,106.5,44.7,109.8,50.9c0,0,4.8,7.7,16.8,8.1s51.6,28.2,61.5,80.9c9.9,52.7,10.3,94.8,7.3,120.5S685,415.2,685,415.2
		l-27.8,10.3l-111.3-15.7l-104-21.2l-53.5,49.1l-35.5-16.1L313.7,356.6z"/>
	<path id="XMLID_28_" class="st2" d="M512,1024c121.9,0,233.9-42.6,321.8-113.8c-0.5-1.4-0.9-2.2-0.9-2.2l-33-89.7
		c0,0-52.4-22.7-108-65.2S618,695,618,695l-27.5-36.6l-0.7-64.4l-158.2-8.8l3.7,75.1L410,691.3c0,0-42.8,45-113.9,86.4
		c-71,41.4-71,41.4-71,41.4l-35.4,90.7C277.7,981.2,389.9,1024,512,1024z"/>
	<path id="XMLID_27_" class="st3" d="M543.7,1023l88-316.8C621.9,698.3,618,695,618,695l-9.7-12.9l-28,11.8l-53.8,18.7l-14.1,2.2
		l-25.4,2.2l-52.7-39.2l-15.3,2.6l-8.9,10.9c0,0-3.4,3.6-9.9,9.6v28.4l69.2,282.7l10,10.9c10.8,0.7,21.7,1,32.7,1
		C522.6,1024,533.2,1023.7,543.7,1023z"/>
	<path id="XMLID_26_" class="st4" d="M604.1,676.4l-13.5-18l-0.7-64.4l-158.2-8.8l3.7,75.1l-8.9,11l23.9,40.6l59.5,2.2l57.7-4.4
		C567.5,709.6,588.2,691,604.1,676.4z"/>
	<path id="XMLID_25_" class="st5" d="M537.2,1023.4c15.2-24.8,38-62.2,38-63.7c0-2.2-14.9-50.1-14.9-50.1l-21-126.7l14.3-6.6
		l-16.8-59.3l-24.4-2.2l-52.9,54.2l23.1,12.4l-21.2,154.5c0,0,10,70,13.2,86.7c12.4,0.9,24.9,1.4,37.5,1.4
		C520.4,1024,528.8,1023.8,537.2,1023.4z"/>
	<path id="XMLID_24_" class="st6" d="M641.1,158.2c-12.1-0.4-16.8-8.1-16.8-8.1c-3.3-6.2-24.9-46.1-109.8-50.9
		c-0.9-0.1-1.7-0.1-2.6-0.1v303.6l34.1,7l111.3,15.7l27.8-10.3c0,0,22-30,24.9-55.7s2.6-67.7-7.3-120.5S653.2,158.5,641.1,158.2z"/>
	<path id="XMLID_23_" class="st7" d="M366.8,404.2c0,0-9.2-74,20.9-118.6s38.4-39.9,38.4-39.9s29.7,16.8,83.1,13.2
		c53.5-3.7,78.7-6.2,82-8.4c3.3-2.2,5.5-5.1,11.7,0.4s48.3,48,50.2,69.9s4.4,83.5,4.4,83.5s6.6-0.4,8.4-2.6s8.8-51.6,31.9-52
		c23.1-0.4,35.2,18.7,35.9,45.8s-12.2,57.1-22.2,64.4s-22.1,8.1-30.5,0c0,0-30.4,94.5-76.2,133.3s-72.5,43.6-90.1,43.9
		c-17.6,0.4-80.2-11-127.1-84.2s-42.8-93-42.8-93s-14.3,16.5-27.8,1.5c-13.5-15-28.9-39.5-25.6-75.1s30.4-44.7,40.3-35.2
		c9.9,9.5,25.1,25.6,25.6,49.1L366.8,404.2z"/>
	<path id="XMLID_22_" class="st8" d="M697.8,349.7c-23.1,0.4-30,49.8-31.9,52s-8.4,2.6-8.4,2.6s-2.6-61.5-4.4-83.5
		s-43.9-64.4-50.2-69.9s-8.4-2.6-11.7-0.4c-3.2,2.2-27.8,4.7-79.5,8.2v378.4c1.1,0,2.1,0.1,3,0c17.6-0.4,44.3-5.1,90.1-43.9
		S681,459.9,681,459.9c8.4,8.1,20.5,7.3,30.5,0c10-7.3,22.9-37.3,22.2-64.4S720.9,349.3,697.8,349.7z"/>
	<path id="XMLID_21_" class="st9" d="M406.6,694.8L406.6,694.8c-8.5,8.3-32.2,30.6-67.8,55.6l42.7,115.5h37l-19.8,39.2l52.4,112.4
		l0,2.8c14.1,1.7,28.3,2.8,42.7,3.3L406.6,694.8z"/>
	<path id="XMLID_20_" class="st9" d="M572.9,1020.4l1.3-1.7l51.4-112l-19.4-38.4h34.1l46.2-119.1C635.1,709.7,618,695,618,695
		l-88.4,328.7C544.2,1023.2,558.7,1022.1,572.9,1020.4z"/>
	<polygon id="XMLID_19_" class="st10" points="428.7,659.1 509.8,714 592.4,660.8 613.7,689.3 557.6,789.8 512.3,716.6 466.8,789.8 
		412.9,687.7 	"/>
</g>
</svg>
