<?xml version="1.0" encoding="utf-8"?>
<!-- Generator: Adobe Illustrator 19.0.0, SVG Export Plug-In . SVG Version: 6.00 Build 0)  -->
<svg version="1.1" id="图层_1" xmlns="http://www.w3.org/2000/svg" xmlns:xlink="http://www.w3.org/1999/xlink" x="0px" y="0px"
	 viewBox="0 0 1024 1024" style="enable-background:new 0 0 1024 1024;" xml:space="preserve">
<style type="text/css">
	.st0{fill-rule:evenodd;clip-rule:evenodd;fill:#6BC3CB;}
	.st1{fill-rule:evenodd;clip-rule:evenodd;fill:#DFC495;}
	.st2{fill-rule:evenodd;clip-rule:evenodd;fill:#2D2D2D;}
	.st3{fill-rule:evenodd;clip-rule:evenodd;fill:#D3BD91;}
	.st4{fill-rule:evenodd;clip-rule:evenodd;fill:#313638;}
	.st5{fill-rule:evenodd;clip-rule:evenodd;fill:#393D40;}
	.st6{fill-rule:evenodd;clip-rule:evenodd;fill:#CDEAF5;}
	.st7{fill-rule:evenodd;clip-rule:evenodd;fill:#EED5A0;}
	.st8{fill-rule:evenodd;clip-rule:evenodd;fill:#923426;}
</style>
<g id="XMLID_39_">
	<circle id="XMLID_65_" class="st0" cx="512" cy="512" r="512"/>
	<path id="XMLID_64_" class="st1" d="M680.4,990.6c0,0,19.4-95.9,19.8-101.4s10.4,2.6,10.4,2.6l28.3,79.3
		c38.6-19.1,74.4-42.9,106.7-70.7l-41.4-118.5c0,0-17.6-34.1-52.4-37.7c-34.8-3.7-94.5,9.2-133.3-13.2
		c-38.8-22.3-55.7-54.9-55.7-54.9l-1.8-24.5H428.2v25.3c0,0-15.4,36.2-40.6,48.3c-25.3,12.1-50.9,20.5-50.9,20.5l-68.5-1.8
		c0,0-49.4-5.9-70.7,33c-11.7,21.3-23.5,71.5-31.7,112.4c32.4,29.7,68.6,55.3,107.9,76c0.4-4.5,7.9-53,18-67.6
		c10.1-14.6,20.4,15.7,20.4,15.7l5.9,72.6c59.9,24.5,125.4,38.1,194.1,38.1c60,0,117.5-10.3,171-29.3L680.4,990.6z"/>
	<path id="XMLID_63_" class="st2" d="M334.8,745.6l-49.6-1.3l9.7,228.4l-0.5,2.9c66.1,31.1,139.8,48.5,217.7,48.5
		c66.5,0,130-12.7,188.2-35.8L710.7,744c0,0-0.1,0-0.1,0c-3.9,0.1-7.8,0.3-11.7,0.3c-0.4,0-0.7,0-1.1,0c-1.8,0-3.7,0.1-5.5,0.1
		c-0.1,0-0.2,0-0.3,0c-2,0-4.1,0-6.1,0c-0.2,0-0.3,0-0.5,0c-1.9,0-3.7,0-5.6-0.1c-0.2,0-0.5,0-0.7,0c-4-0.1-8.1-0.3-12.1-0.6
		c-0.3,0-0.5,0-0.8-0.1c-2-0.2-3.9-0.3-5.9-0.5c0,0,0,0,0,0v145.9l-45.4,8.4c0,0-44.7,7.7-80.6,37.7c-35.9,30-33.7,75.1-33.7,75.1
		h-4.8c-0.4-33.7-15.4-65.2-52.7-90.4c-37.3-25.3-108.7-30.8-108.7-30.8L334.8,745.6z"/>
	<path id="XMLID_62_" class="st3" d="M369.6,733.1c128.6-17.6,188.6-71,188.6-71l3.3-4.7l-0.4-5.9H428.2v25.3
		c0,0-15.4,36.2-40.6,48.3C381.4,728,375.4,730.7,369.6,733.1L369.6,733.1z"/>
	<ellipse id="XMLID_61_" class="st4" cx="500.7" cy="359.9" rx="273.9" ry="274.4"/>
	<path id="XMLID_60_" class="st5" d="M528,192.8h-48.7c-97.7,0-176.8,79.2-176.8,176.8v90.3h402.4v-90.3
		C704.8,272,625.7,192.8,528,192.8z"/>
	<path id="XMLID_59_" class="st6" d="M528,192.8h-48.7c-94.9,0-172.4,74.8-176.6,168.7c2.3-9.5,25-99.2,80-125.1
		c58.1-27.3,121.6-22,137.7-22c16.1,0,85.4,2,121.6,36.6c35.7,34.3,58.7,81.1,59.2,82.1C684.3,253,613.2,192.8,528,192.8z"/>
	<path id="XMLID_58_" class="st7" d="M331.5,508c0,0-16.1,23.8-26,0c-9.9-23.8-19.6-51.3-3-76.9l5.2,10.6c0,0,6.2-9.5,14.6-2.6
		s25.3,12.1,46.1,9.2s47.2-0.4,69.6-8.1s62.1-26.7,63.8-41.4c0,0,39.8,42.8,85.6,44.7s74,8.1,75.1,7s27.5-15,27.5-15
		s15,4.4,8.8,43.2s-22.7,43.2-23.8,43.2s-13.5,0.4-13.5-3.3c0,0-21.6,93.7-76.9,128.9c-55.3,35.2-91.9,30.4-91.9,30.4
		s-63.7,1.1-112.4-56.8S331.5,508,331.5,508z"/>
	<circle id="XMLID_57_" class="st8" cx="318.7" cy="504.1" r="6.6"/>
	<circle id="XMLID_56_" class="st8" cx="671.2" cy="508.3" r="6.6"/>
	<path id="XMLID_55_" class="st1" d="M689.9,435.5c0,0-26.4,13.9-27.5,15s-29.3-5.1-75.1-7s-85.6-44.7-85.6-44.7
		c-0.1,1.2-0.5,2.4-1.2,3.6V678c13.7-0.6,43.9-5.2,83.8-30.5c55.3-35.2,76.9-128.9,76.9-128.9c0,3.7,12.4,3.3,13.5,3.3
		s17.6-4.4,23.8-43.2C705,439.9,689.9,435.5,689.9,435.5z"/>
</g>
</svg>
