<?xml version="1.0" encoding="utf-8"?>
<!-- Generator: Adobe Illustrator 19.0.0, SVG Export Plug-In . SVG Version: 6.00 Build 0)  -->
<svg version="1.1" id="图层_1" xmlns="http://www.w3.org/2000/svg" xmlns:xlink="http://www.w3.org/1999/xlink" x="0px" y="0px"
	 viewBox="0 0 1024 1024" style="enable-background:new 0 0 1024 1024;" xml:space="preserve">
<style type="text/css">
	.st0{fill-rule:evenodd;clip-rule:evenodd;fill:#DCEAF2;}
	.st1{fill-rule:evenodd;clip-rule:evenodd;fill:#4E2C18;}
	.st2{fill-rule:evenodd;clip-rule:evenodd;fill:#B6262B;}
	.st3{fill-rule:evenodd;clip-rule:evenodd;fill:#F1D3A3;}
	.st4{fill-rule:evenodd;clip-rule:evenodd;fill:#D4BC8F;}
	.st5{fill-rule:evenodd;clip-rule:evenodd;fill:#FFFFFD;}
	.st6{fill-rule:evenodd;clip-rule:evenodd;fill:#EED5A1;}
	.st7{fill-rule:evenodd;clip-rule:evenodd;fill:#DFC495;}
</style>
<g>
	<circle id="XMLID_37_" class="st0" cx="512" cy="512" r="512"/>
	<path id="XMLID_36_" class="st1" d="M756.1,661.5c6.8-69.3,55.7-95.7,20.5-176.7s-43-13.7-45.9-104.5s-3.9-173.8-67.4-212.9
		c-63.5-39.1-118.1-19.5-118.1-19.5s-47.8-49.8-137.7-13.7c-89.8,36.1-136.7,122.1-130.8,166c5.9,43.9,37.1,106.4-0.5,134.7
		c-37.6,28.3-88.4,52.7-69.8,112.3c18.6,59.6,63.5,87.9,45.9,126c-17.6,38.1-91.8,91.8-96.7,138.6c-1.7,16.3-2.2,40.7-2.2,65.6
		C245.8,968.1,372.4,1024,512,1024c141.6,0,269.7-57.5,362.4-150.3c-0.5-20.2-5-60.6-30.4-88.2C808.8,747.4,749.3,730.8,756.1,661.5
		z"/>
	<path id="XMLID_35_" class="st2" d="M512,1024c120.1,0,230.5-41.4,317.8-110.6c0,0,0,0,0,0s-2.9-62.5-56.6-92.3
		c-53.7-29.8-125.5-33.7-125.5-33.7s-19.5-3.9-34.2-14.6c-14.6-10.7-39.5-42.5-41-84.5c-1.5-42,2.9-62,2.9-62l-73.2,6.8l-54.2,2
		c0,1.5,5.4,48.8-2.9,82.5c-8.3,33.7-42.5,58.6-42.5,58.6s-36.6,11.7-65.4,15.6c-28.8,3.9-87.9,12.2-112.3,53.7
		c-11.1,18.8-22.2,44.8-31.1,67.6C281.2,982.5,391.8,1024,512,1024z"/>
	<path id="XMLID_34_" class="st3" d="M601.3,761.1c-13.3-15.4-27.7-41.2-28.8-72.8c-1.5-42,2.9-62,2.9-62l-73.2,6.8l-54.2,2
		c0,1.5,5.4,48.8-2.9,82.5c-3.8,15.5-13.1,29.1-22,39.3l11.7,21l71.3,26.4l83.2-31.5C589.4,772.8,594.4,767.9,601.3,761.1z"/>
	<path id="XMLID_33_" class="st4" d="M587.2,762.5c0,0,8.1,0.8,16.5,1.3c-13.9-15-30-41.9-31.2-75.5c-1.5-42,2.9-62,2.9-62
		l-73.2,6.8l-54.2,2c0,1,2.3,21.8,1.6,45.5L587.2,762.5z"/>
	<path id="XMLID_32_" class="st5" d="M512.6,792.3l-80.4-47l-32.9,24.1l40.5,74.2l54.7-37.1v217.2c5.8,0.2,11.7,0.3,17.6,0.3
		c5.4,0,10.8-0.1,16.1-0.3V803.1l53.2,33.2l31.7-74.2l-20.5-19.5L512.6,792.3z"/>
	<path id="XMLID_31_" class="st6" d="M584.3,283.6c0,0-72.3,101.5-251.9,95.7c0,0-15.6,79.1,10.7,145.5
		c26.4,66.4,77.4,121.1,112.9,130.8c35.5,9.8,50.1,13.7,71.6,11.7c21.5-2,127.9-29.3,157.2-156.2c0,0,14.6-90.8,0-158.2L584.3,283.6
		z"/>
	<path id="XMLID_30_" class="st7" d="M584.3,283.6c0,0-22.8,32.1-74.7,59.1v324.8c5.9,0.5,11.7,0.4,18.1-0.2
		c21.5-2,127.9-29.3,157.2-156.2c0,0,14.6-90.8,0-158.2L584.3,283.6z"/>
</g>
</svg>
