<?xml version="1.0" encoding="utf-8"?>
<!-- Generator: Adobe Illustrator 19.0.0, SVG Export Plug-In . SVG Version: 6.00 Build 0)  -->
<svg version="1.1" id="图层_1" xmlns="http://www.w3.org/2000/svg" xmlns:xlink="http://www.w3.org/1999/xlink" x="0px" y="0px"
	 viewBox="0 0 1024 1024" style="enable-background:new 0 0 1024 1024;" xml:space="preserve">
<style type="text/css">
	.st0{fill-rule:evenodd;clip-rule:evenodd;fill:#DCEAF2;}
	.st1{fill-rule:evenodd;clip-rule:evenodd;fill:#713E1F;}
	.st2{fill-rule:evenodd;clip-rule:evenodd;fill:#F2D1B7;}
	.st3{fill-rule:evenodd;clip-rule:evenodd;fill:#DFC2AF;}
	.st4{fill-rule:evenodd;clip-rule:evenodd;fill:#422108;}
	.st5{fill-rule:evenodd;clip-rule:evenodd;fill:#361B06;}
	.st6{fill-rule:evenodd;clip-rule:evenodd;fill:#573019;}
	.st7{fill-rule:evenodd;clip-rule:evenodd;fill:#F79B29;}
	.st8{fill-rule:evenodd;clip-rule:evenodd;fill:#BDBDBD;}
	.st9{fill-rule:evenodd;clip-rule:evenodd;fill:#FDD8BA;}
	.st10{fill-rule:evenodd;clip-rule:evenodd;fill:#F3D0B7;}
</style>
<g id="XMLID_38_">
	<circle id="XMLID_4_" class="st0" cx="512" cy="512" r="512"/>
	<path id="XMLID_14_" class="st1" d="M512,1024c140.6,0,268-56.7,360.6-148.5c-2.7-4.8-17.9-29.2-58.6-53.3
		c-45.4-26.9-160.6-92.3-185-120.6c-24.4-28.3-29.5-13.8-49.1-62.3c-19.7-48.5-25.1-42.6-25.1-42.6l-111.3,11.7
		c0,0-12.7,43.9-19.5,61.5c-6.8,17.6-140.1,105-155.7,116.7c-13,9.8-82.5,34.9-117.9,87.8C242.9,966.8,370.7,1024,512,1024z"/>
	<path id="XMLID_13_" class="st2" d="M591.5,705.3l22.4-18.5c-12.7-10.2-19.3-11.1-34.1-47.6c-19.7-48.5-25.1-42.6-25.1-42.6
		l-111.3,11.7c0,0-12.7,43.9-19.5,61.5c-1,2.5-4.5,6.4-9.8,11.2l25.1,36.7l56.8,10.3h40.6L591.5,705.3z"/>
	<path id="XMLID_12_" class="st3" d="M588.5,658.5c-2.6-5-5.4-11.3-8.7-19.3c-19.7-48.5-25.1-42.6-25.1-42.6l-111.3,11.7
		c0,0-6.5,22.4-12.7,41.7C430.8,650,493.9,714.1,588.5,658.5z"/>
	<path id="XMLID_11_" class="st4" d="M316.5,398.4c0,0-11.7-78.1,6.3-142.6s83-95.2,191.9-93.2c108.9,2,153.8,30.3,172.8,64.9
		c19,34.7,30.3,97.6,20,170.9l-36.6,48.3l-96.7,8.3c0,0-137.7-5.4-143-5.9c-5.4-0.5-74.2-5.9-74.2-5.9l-40-16.1L316.5,398.4z"/>
	<path id="XMLID_9_" class="st5" d="M514.7,162.6c-0.9,0-1.7,0-2.6,0v290c32.4,1.3,62.2,2.5,62.2,2.5l96.7-8.3l36.6-48.3
		c10.3-73.2-1-136.2-20-170.9C668.5,192.8,623.6,164.5,514.7,162.6z"/>
	<path id="XMLID_7_" class="st6" d="M391.1,699.8c-22.2,17-51.8,37.7-76.6,54.7c18.9,51.5,52.4,142.7,52.8,143.7
		c0.5,1.5,8.8-2,21.5-12.7c12.7-10.7,14.6-0.5,14.6-0.5s-11.2,23.9-16.1,38.1c-4.9,14.2-1.5,20.5-1.5,20.5l35.6,69.8l2.3,2.9
		c14.5,2.5,29.2,4.4,44.1,5.7c0-8.4,0-13.9,0-13.9S394.1,723.5,391.1,699.8C391.1,699.8,391.1,699.8,391.1,699.8z"/>
	<path id="XMLID_6_" class="st6" d="M601.2,1016.2l-0.1-0.8l35.6-80.6l-17.6-49.3c0,0-2-7.3,4.9-3.4c6.8,3.9,29.3,17.6,29.3,17.6
		l50-143.7c-33.5-21.1-63.4-41.6-74.5-54.5l-79.5,321.1C567,1021.4,584.2,1019.2,601.2,1016.2z"/>
	<path id="XMLID_5_" class="st7" d="M524.1,788.8c0,0,9.8-9.2,9.6-13.2c-0.1-4,2.6-15.7,6.3-20.3c3.8-4.6,2-14.8,1.2-15.9
		s-15.6-10.6-15.6-10.6L508,728l-31.1,17.6l4.8,15l5.1,7c0,0,3.7,15.7,8.1,20.5L471,1022.4c13.5,1.1,27.2,1.6,41,1.6
		c11.3,0,22.4-0.4,33.5-1.1l-17.4-223.8C528.1,799.1,527.7,792.1,524.1,788.8z"/>
	<path id="XMLID_3_" class="st8" d="M569.9,782.6c0,0,53.6-68.5,52.2-70.3c-1.3-1.8,0-22,0-22l-23.3-20.9L510.3,728L569.9,782.6z"/>
	<path id="XMLID_2_" class="st8" d="M393.1,698.3L393.1,698.3l53.3,87.2L508,728l-84.1-58.2C421.9,674.8,409.8,685.4,393.1,698.3z"
		/>
	<path id="XMLID_10_" class="st9" d="M354.6,413c0,0,6.3-77.6,21-99.6c14.6-22,38.1-17.6,59.1-14.2c21,3.4,60.5,7.3,75.2,2.4
		c0,0,27.3,6.3,45.4,2.4s59.1-7.7,59.1-7.7s28.3-3.5,35.2,19.9c6.8,23.4,16.6,55.2,19,92.8l17.1-17.1c0,0,15.6-15.1,25.8,15.6
		c10.3,30.8-4.4,64.4-21.9,81.5l-12.7,7.8c0,0-27.3,95.7-99.6,144s-134.7-4.9-146-13.2c-11.2-8.3-70.8-82.5-87.9-134.7
		c0,0-31.2-5.4-36.6-46.4c-5.4-41,12.2-57.6,19.5-57.1C333.6,390.1,344.8,394.5,354.6,413z"/>
	<path id="XMLID_8_" class="st10" d="M685.6,392l-17.1,17.1c-2.4-37.6-12.2-69.3-19-92.8c-6.8-23.4-35.2-19.9-35.2-19.9
		s-41,3.8-59.1,7.7c-15,3.2-36.3-0.6-43.1-2V661c19.8,0.6,41.9-4.5,65.1-20c72.3-48.3,99.6-144,99.6-144l12.7-7.8
		c17.6-17.1,32.2-50.8,21.9-81.5C701.1,376.9,685.6,392,685.6,392z"/>
</g>
</svg>
