<?xml version="1.0" encoding="utf-8"?>
<!-- Generator: Adobe Illustrator 19.0.0, SVG Export Plug-In . SVG Version: 6.00 Build 0)  -->
<svg version="1.1" id="图层_1" xmlns="http://www.w3.org/2000/svg" xmlns:xlink="http://www.w3.org/1999/xlink" x="0px" y="0px"
	 viewBox="0 0 705.4 991.9" style="enable-background:new 0 0 705.4 991.9;" xml:space="preserve">
<style type="text/css">
	.st0{fill:#F8D1D2;}
	.st1{fill:#524641;}
	.st2{fill:#39536A;}
	.st3{fill:#D0D1D3;}
	.st4{fill:#E5E6E7;}
	.st5{fill:#313232;}
	.st6{fill:#F19B9C;}
	.st7{fill:#FFFFFF;}
	.st8{fill:#EC7B7B;}
	.st9{fill:#1686C9;}
	.st10{fill:#484949;}
	.st11{fill-rule:evenodd;clip-rule:evenodd;fill:#484949;}
</style>
<g>
	<g>
		<path class="st0" d="M491.3,135.7H351.9H212.6c0,0-7.3,162.8,7.8,199.3c15,36.3,84,117.9,131.6,118.9
			c47.6-1,116.5-82.6,131.6-118.9C498.6,298.5,491.3,135.7,491.3,135.7z"/>
		<path class="st1" d="M531.1,124.7c0,0-29.9-119.5-177.6-124.5V0.1c-0.6,0-1.1,0-1.7-0.1C203.5,4.6,173.5,124.6,173.5,124.6
			L158,537.9l193.8-5.1l0.9,0v0.1l0.1,0l193.8,5.1L531.1,124.7z M483.6,335c-14.9,36-82.7,116.3-130.2,118.8v-0.2
			c-0.6,0-1.1,0.1-1.7,0.1v0c-0.1,0-0.3,0-0.4,0c-0.1,0-0.3,0-0.4,0v0c-47.5-1.8-115.8-82.7-130.8-118.9
			c-7.4-17.9-9.4-66.1-9.6-110.6c3.5-4,7.4-7.7,11.5-11.2c12.1-10.2,26-18.1,40-25.6c19-10.2,38.4-19.8,58.1-28.8
			c12-5.5,25-11.6,31.3-23.1h0.3h0.9v0.1h0.1h3.3c36.8,8.8,74.5,17.2,111.9,12c8.8-1.2,18.6-3.9,22.9-11.7l-0.1-0.3h0.6
			C491.4,135.7,498.7,298.5,483.6,335z"/>
		<path class="st2" d="M351.9,501.2h-98.4L55,565.8L5.5,763.3c0,0,104.8,12.8,346.4,12.8V501.2z"/>
		<polygon class="st3" points="252.7,501.2 351.9,776.1 214.5,622.9 240.5,575.6 197.4,519.5 		"/>
		<path class="st2" d="M351.9,501.2h98.4l198.4,64.6l49.6,197.5c0,0-104.8,12.8-346.4,12.8V501.2z"/>
		<polygon class="st3" points="451.1,501.2 351.9,776.1 489.3,622.9 463.3,575.6 506.4,519.5 		"/>
		<polygon class="st4" points="351.9,501.2 252.7,501.2 351.9,776.1 451.1,501.2 		"/>
		<path class="st0" d="M423.2,413.5c-23.4,22.1-49.5,39.5-71.2,40.4v0c-21.7-0.5-47.9-17.8-71.4-39.9l-27.8,87.1
			c0,0,18.3,28.3,98.7,28.3c0.2,0,0.3,0,0.5,0c0.2,0,0.3,0,0.5,0c80.4,0,98.7-28.3,98.7-28.3L423.2,413.5z"/>
		<path class="st5" d="M471.3,373.6H351.9V366h119.4c14.2,0,25.7-11.5,25.7-25.7v-15.2h7.5v15.2
			C504.5,358.6,489.6,373.6,471.3,373.6z"/>
		<path class="st5" d="M362,383.7h-20.3c-7.6,0-13.7-6.1-13.7-13.7l0,0c0-7.6,6.1-13.7,13.7-13.7H362c7.6,0,13.7,6.1,13.7,13.7l0,0
			C375.8,377.6,369.6,383.7,362,383.7z"/>
		<g>
			<g>
				<path class="st5" d="M502.9,242.4c-0.2,0-0.4,0-0.6,0c-2.5-0.3-4.2-2.6-3.9-5c0-0.2,2.9-23.5-0.5-53.4
					c-3.1-27.3-12-65.9-37.6-94.9c-25-28.4-61.5-42.7-108.5-42.7c-47,0-83.5,14.4-108.5,42.8c-49.1,55.6-38.1,147.3-38,148.2
					c0.3,2.5-1.4,4.7-3.9,5c-2.5,0.3-4.7-1.4-5-3.9c-0.1-1-3-24.4,0.4-55.2c3.2-28.7,12.7-69.3,39.8-100
					c26.8-30.4,65.6-45.8,115.2-45.8c49.7,0,88.4,15.4,115.2,45.8c27.1,30.7,36.6,71.4,39.8,100c3.4,30.9,0.5,54.3,0.4,55.2
					C507,240.8,505.1,242.4,502.9,242.4z"/>
				<path class="st5" d="M487.9,136.6c-4.7,0-9.1-2.8-11.1-7.3c-21.3-50.4-63.3-76-124.9-76c-61.6,0-103.6,25.6-124.9,76
					c-2.6,6.1-9.6,9-15.7,6.4c-6.1-2.6-9-9.6-6.4-15.7c11.3-26.8,27.9-48,49.4-63.2c25.9-18.2,58.7-27.5,97.6-27.5
					c38.9,0,71.8,9.2,97.6,27.5c21.5,15.1,38.1,36.4,49.4,63.2c2.6,6.1-0.3,13.2-6.4,15.7C491,136.3,489.4,136.6,487.9,136.6z"/>
			</g>
			<g>
				<g>
					<path class="st5" d="M514.8,335h-19.3c-1.4,0-2.5-1.1-2.5-2.5v-101c0-1.4,1.1-2.5,2.5-2.5h19.3c1.4,0,2.5,1.1,2.5,2.5v101
						C517.3,333.9,516.2,335,514.8,335z"/>
					<path class="st5" d="M509.7,228.9V335c26.6,0,48.2-23.7,48.2-53S536.3,228.9,509.7,228.9z"/>
				</g>
				<g>
					<path class="st5" d="M189.1,335h19.3c1.4,0,2.5-1.1,2.5-2.5v-101c0-1.4-1.1-2.5-2.5-2.5h-19.3c-1.4,0-2.5,1.1-2.5,2.5v101
						C186.5,333.9,187.7,335,189.1,335z"/>
					<path class="st5" d="M194.2,228.9V335c-26.6,0-48.2-23.7-48.2-53S167.5,228.9,194.2,228.9z"/>
				</g>
			</g>
		</g>
		<path class="st6" d="M352.3,461.1c26.2-0.8,57.8-24.6,73.9-38.3l-3-9.4c-23.4,22.1-49.5,39.5-71.2,40.4v0
			c-21.7-0.5-47.9-17.8-71.4-39.9l-2.9,9.1C294.3,437.6,326.3,461.9,352.3,461.1z"/>
		<polygon class="st7" points="312.2,571.1 252.7,502.1 351.9,530.4 		"/>
		<polygon class="st7" points="391.1,571.1 451,502.1 351.9,530.4 		"/>
		<polygon class="st8" points="377.3,556.5 351.9,530.4 351.9,530.4 326.5,556.5 341.3,576.6 330.3,717.1 351.9,777 351.9,777 
			372.5,717 363.6,575.8 		"/>
		<g>
			<path class="st7" d="M608.8,869.2H94.9c-43.8,0-79.2-35.5-79.2-79.2v0c0-43.8,35.5-79.2,79.2-79.2h513.9
				c43.8,0,79.2,35.5,79.2,79.2v0C688,833.7,652.5,869.2,608.8,869.2z"/>
			<path class="st9" d="M606.2,699.4h-507c-54.7,0-99.1,41.1-99.1,91.7v0c0,50.6,44.4,91.7,99.1,91.7h507
				c54.7,0,99.1-41.1,99.1-91.7v0C705.3,740.4,660.9,699.4,606.2,699.4z M688,790c0,43.8-38.3,79.2-85.6,79.2H101.3
				c-47.3,0-85.6-35.5-85.6-79.2l0,0c0-43.8,38.3-79.2,85.6-79.2h501.1C649.7,710.8,688,746.2,688,790L688,790z"/>
		</g>
		<g>
			<path class="st10" d="M174.5,828.7h-5.9v-4.5h-34.3v4.5h-6v-33.2c-5.2,6.5-11.4,11.9-18.3,16.2l-3.2-5.6
				c13.1-8.3,22.6-20.1,28.4-35h-25.6v-5.6h27.6c1.2-3.9,2.2-8,3.1-12.3l6.1,0.7c-0.8,4-1.7,7.9-2.8,11.5h38.7v5.6h-40.5
				c-2.5,6.7-5.4,12.8-8.9,18.2h41.7V828.7z M168.7,818.6v-23.7h-34.3v23.7H168.7z"/>
			<path class="st10" d="M227.5,753.6v25.3h30.8v5.7h-30.8v35h37.8v5.7h-73.9v-5.7h29.9v-66H227.5z"/>
			<path class="st10" d="M306.6,757v5.5h-5.4v44.9c1.9-0.7,3.7-1.2,5.6-1.8v5.7c-1.8,0.6-3.7,1.1-5.6,1.6v16.1h-5.7v-14.6
				c-6.6,1.6-13.4,3.2-20.6,4.5l-1.5-5.6l5.2-0.8v-50.2h-5.1V757H306.6z M295.5,774.5v-12h-11.1v12H295.5z M295.5,791.5v-11.7h-11.1
				v11.7H295.5z M295.5,809v-12.1h-11.1v14.6C288.2,810.7,291.9,809.9,295.5,809z M328.6,771.5c3.2-5.5,5.9-11.4,8.1-17.7l5.5,2
				c-2.5,6.2-5,11.4-7.6,15.6H347v5.6h-17v2.5c0,4.1-0.2,7.9-0.7,11.6h19.1v5.6h-17.2c2,9,8.1,18.2,18.4,27.5l-4.1,4.3
				c-9.5-9.3-15.5-18.6-17.9-27.7c-3.2,12.6-9.6,21.9-19.1,28l-3.6-4.7c9.3-5.6,15.3-14.7,17.8-27.5h-16v-5.6h16.8
				c0.3-3.3,0.6-6.7,0.7-10.3V777H308v-5.6H328.6z M323.9,767l-4.5,3c-1.9-3.9-4.5-8.2-7.8-12.9l4.6-2.9
				C319.5,759.1,322.1,763.4,323.9,767z"/>
			<path class="st10" d="M382.2,808.8c-5.6,6.7-12.6,12.5-20.9,17.5l-3.7-4.7c8.1-4.7,14.9-10.2,20.4-16.4L382.2,808.8z
				 M381.9,828.4l-1.3-5.8c3,0.2,5.8,0.4,8.5,0.4c2,0,3.1-1.1,3.1-3v-20c-8,0.5-16.6,1-26,1.4l-1.7-5.2c1.9-0.2,3.7-0.6,5.2-1.1
				c6.8-2.9,14.4-7.5,22.9-13.7c-7.2,0.6-15,1.1-23.3,1.6l-1.2-5.2c1.5-0.2,2.8-0.6,4.1-1.1c4.2-2,9-6.1,14.7-12.1
				c-7.1,0.3-14.5,0.5-22.5,0.5l-1.7-5.2c23.8,0,43.6-1.7,59.4-5.2l2.9,5c-8.6,2-18.8,3.4-30.5,4.3c-5.1,5.9-10.4,10.5-15.7,13.9
				c6.6-0.3,13.4-0.8,20.2-1.4c3.7-2.9,7.6-6.2,11.5-9.7l5.5,2.7c-14,12.2-26.2,21-36.7,26.4c13.5-0.7,25.1-1.6,34.8-2.8
				c-2.1-2.6-4.2-5.3-6.5-7.9l4.5-2.7c6.8,7.9,12,14.6,15.7,20.5l-4.8,3.4c-1.6-2.8-3.4-5.6-5.4-8.4c-5.7,0.7-12.1,1.2-19.3,1.8
				v21.9c0,4.6-2.4,7-7.1,7H381.9z M430.6,822.5l-4.2,4.2c-5.1-5.7-11.9-11.9-20.7-18.4l4-3.8C418,810.5,424.9,816.5,430.6,822.5z"
				/>
			<path class="st10" d="M472.6,768c-1.2,1.9-2.5,3.7-3.8,5.4h30.6v4.7c-3.4,4.7-8.3,8.8-14.7,12.4c9,3.5,19.2,5.6,30.4,6.5
				l-1.3,5.3c-13.3-1-25-3.8-35.3-8.8c-9.8,4.4-22.2,7.9-37.1,10.4l-2.2-5.2c13.4-2.1,24.5-4.8,33.3-8.3c-4.2-2.5-8.1-5.2-11.7-8.3
				c-3.2,2.9-6.7,5.4-10.4,7.7l-3.8-4.6c8.2-4.7,14.9-10.8,20.2-18.4L472.6,768z M510.9,775.2h-6.1v-10.1h-55.3v10.1h-6.1v-15.5
				h30.4c-1-2.1-2-4-3.1-5.7l6.6-1c1,2,1.9,4.3,2.9,6.7h30.6V775.2z M501.6,828.9h-5.8v-3.5h-35.7v3.5h-5.8v-25.6h47.3V828.9z
				 M495.8,820.1v-11.5h-35.7v11.5H495.8z M492.2,778.4h-27.8l-0.2,0.2c4.4,3.6,9.2,6.6,14.4,9.2C484.3,785,488.8,781.9,492.2,778.4
				z"/>
			<path class="st10" d="M527.8,828.8l-4.5-4.1c3.3-7.4,5-16.9,5.1-28.3v-39.3h24.2V821c0,4.9-2.3,7.4-7,7.4H539l-1.4-5.2
				c2.3,0.2,4.4,0.3,6.4,0.3c2.1,0,3.2-1.5,3.2-4.4v-18.5h-13.4C533.2,812,531.2,821.5,527.8,828.8z M547.1,762.5h-13.4v13.8h13.4
				V762.5z M533.8,795.3h13.4v-13.7h-13.4V795.3z M565.2,828.7h-5.6v-71.7h33.6c0,10.1-0.5,16.9-1.5,20.1c-1,3.4-4.1,5.1-9.3,5.1
				h-6.7l-1.6-5.1c1.4,0,3.2,0.1,5.6,0.1c2,0,3.4-0.2,4.4-0.4c1-0.3,1.7-1.1,2.2-2.4c0.6-1.8,0.9-5.8,1.1-12h-22.2v24.8h28.2v5
				c-1.6,8.4-4.3,15.6-8.1,21.5c3.7,3.6,8.1,6.8,13.2,9.7l-3,5c-5.3-3-9.8-6.4-13.6-10.1c-3.7,4.2-7.9,7.5-12.9,10.1l-3.2-4.7
				c4.7-2.5,8.7-5.7,12-9.7c-5.3-6.4-8.9-13.6-10.7-21.6h-2V828.7z M581.3,809.5c3.1-4.9,5.3-10.6,6.8-17h-15.8
				C574.1,798.8,577.1,804.4,581.3,809.5z"/>
		</g>
	</g>
	<g>
		<g>
			<path class="st11" d="M87,976.8c0,14.9-6.8,14.9-39.9,14.9s-39.9,0-39.9-14.9c0-16.2,18.1-48.6,39.9-48.6S87,960.6,87,976.8
				L87,976.8L87,976.8L87,976.8z M47.1,935.1c-9.3,0-16.8,7.5-16.8,16.8c0,9.3,7.5,16.8,16.8,16.8c9.3,0,16.8-7.5,16.8-16.8
				C63.9,942.5,56.5,935.1,47.1,935.1L47.1,935.1L47.1,935.1L47.1,935.1z M12.2,947.5c6.8-11.2,18.7-23,34.9-23s29.3,13.1,34.9,23
				c3.1,5,8.7,4.4,11.2,0c1.9-3.1,6.8-31.1-46.1-31.1S-0.8,945,1,947.5C4.8,952.5,11,950,12.2,947.5L12.2,947.5L12.2,947.5
				L12.2,947.5z"/>
		</g>
		<g>
			<path class="st10" d="M151.5,925.8v41.3h9.9v5.7h-9.9v13.8h-6.6v-13.8h-30.6v-6.6l30.7-40.4H151.5z M120.1,967.1h24.7v-32.2h-0.3
				L120.1,967.1z"/>
			<path class="st10" d="M205.3,934.2c3.2,5.5,4.9,12.8,4.9,22c0,9.2-1.6,16.5-4.9,22c-3.7,6.4-9.2,9.6-16.4,9.6
				c-7.3,0-12.8-3.2-16.4-9.6c-3.2-5.5-4.9-12.8-4.9-22c0-9.2,1.6-16.5,4.9-22c3.7-6.5,9.1-9.6,16.4-9.6
				C196.1,924.6,201.6,927.8,205.3,934.2z M177.1,939.4c-1.7,4.1-2.6,9.7-2.6,16.9c0,7.1,0.9,12.7,2.6,16.9
				c2.4,5.8,6.3,8.8,11.8,8.8s9.4-3,11.8-8.8c1.7-4.2,2.6-9.8,2.6-16.9c0-7.2-0.9-12.8-2.6-16.9c-2.4-5.9-6.3-8.8-11.8-8.8
				S179.5,933.5,177.1,939.4z"/>
			<path class="st10" d="M256.5,934.2c3.2,5.5,4.9,12.8,4.9,22c0,9.2-1.6,16.5-4.9,22c-3.7,6.4-9.2,9.6-16.4,9.6
				c-7.3,0-12.8-3.2-16.4-9.6c-3.2-5.5-4.9-12.8-4.9-22c0-9.2,1.6-16.5,4.9-22c3.7-6.5,9.1-9.6,16.4-9.6
				C247.3,924.6,252.7,927.8,256.5,934.2z M228.3,939.4c-1.7,4.1-2.6,9.7-2.6,16.9c0,7.1,0.9,12.7,2.6,16.9
				c2.4,5.8,6.3,8.8,11.8,8.8s9.4-3,11.8-8.8c1.7-4.2,2.6-9.8,2.6-16.9c0-7.2-0.9-12.8-2.6-16.9c-2.4-5.9-6.3-8.8-11.8-8.8
				S230.7,933.5,228.3,939.4z"/>
			<path class="st10" d="M312.9,961.7v5.8h-43v-5.8H312.9z"/>
			<path class="st10" d="M342.2,925.8v60.8h-7v-52.3c-3.8,3.9-8.6,6.6-14.3,8.4v-7c2.7-0.8,5.6-2,8.5-3.7c2.9-1.9,5.3-3.9,7.3-6.2
				H342.2z"/>
			<path class="st10" d="M391.8,929.6c3.2,3,4.9,6.7,4.9,11.2c0,3.2-0.8,6-2.3,8.2c-1.7,2.4-4.1,4.2-7.2,5.3v0.2
				c3.2,0.8,5.9,2.6,8.1,5.3c2.4,2.9,3.6,6.3,3.6,10.2c0,5.4-1.9,9.7-5.6,13c-3.9,3.3-9.4,5-16.4,5c-7.1,0-12.5-1.7-16.4-5
				c-3.7-3.2-5.6-7.6-5.6-13c0-3.9,1.2-7.3,3.6-10.2c2.2-2.7,4.9-4.5,8.1-5.3v-0.2c-3.2-1.1-5.6-2.9-7.2-5.3
				c-1.5-2.2-2.3-4.9-2.3-8.2c0-4.4,1.6-8.2,4.9-11.2c3.6-3.3,8.5-4.9,14.9-4.9C383.2,924.6,388.3,926.2,391.8,929.6z M365.6,961
				c-2.6,2.2-3.7,5.2-3.7,8.9c0,3.6,1.2,6.6,3.7,8.8c2.6,2.3,6.4,3.5,11.3,3.5c4.9,0,8.7-1.2,11.4-3.6c2.4-2.2,3.7-5.1,3.7-8.7
				c0-3.7-1.3-6.6-3.7-8.9c-2.7-2.5-6.6-3.7-11.4-3.7C372,957.3,368.2,958.5,365.6,961z M366.8,933.6c-2.1,1.9-3.2,4.3-3.2,7.3
				c0,3.1,0.9,5.6,2.8,7.5c2.2,2.2,5.7,3.4,10.5,3.4c4.7,0,8.2-1.2,10.5-3.4c1.9-1.9,2.8-4.4,2.8-7.5c0-3-1.1-5.5-3.2-7.3
				c-2.5-2.2-5.9-3.3-10.1-3.3C372.6,930.3,369.2,931.4,366.8,933.6z"/>
			<path class="st10" d="M442.8,929.5c3.6,3.2,5.5,7.6,5.5,12.9c0,5.3-2,10.1-6,14.3c-2.1,2.2-6.3,5.5-12.6,9.8
				c-7.8,5.2-12.2,9.9-13.3,14h32v6.2h-40.6c0-5.5,2-10.6,6-15.1c2.4-2.7,6.7-6.4,13.2-10.8c4.8-3.4,7.9-5.9,9.5-7.6
				c3.1-3.3,4.7-7,4.7-10.9c0-3.7-1.1-6.6-3.3-8.6c-2.2-2-5.4-3.1-9.3-3.1c-4.2,0-7.4,1.4-9.6,4.3c-2.4,2.7-3.7,6.8-3.7,12.2h-7
				c0-6.8,2-12.3,5.7-16.3c3.7-4.1,8.8-6.1,14.9-6.1C434.5,924.6,439.1,926.2,442.8,929.5z"/>
			<path class="st10" d="M500.9,961.7v5.8h-43v-5.8H500.9z"/>
			<path class="st10" d="M549.5,925.8v6.2h-29.7l-2,20.4h0.3c1.7-2,3.9-3.6,6.6-4.6c2.4-1,4.9-1.4,7.8-1.4c5.8,0,10.5,1.8,14.1,5.5
				c3.6,3.7,5.5,8.9,5.5,15.4c0,6.1-2.2,11.2-6.6,15.1c-4.1,3.7-9.2,5.5-15.2,5.5c-5.4,0-10-1.4-13.7-4.3c-4.3-3.2-6.6-7.7-7-13.2
				h6.9c0.3,3.8,1.9,6.8,4.6,8.9c2.4,1.8,5.5,2.7,9.3,2.7c4.3,0,7.8-1.4,10.6-4.1c2.7-2.7,4.2-6.2,4.2-10.5c0-4.9-1.4-8.6-3.9-11.2
				c-2.5-2.7-6-4-10.4-4c-2.9,0-5.5,0.6-7.8,1.9c-2.4,1.2-4.3,3.1-5.5,5.5h-6.6l3.2-33.6H549.5z"/>
			<path class="st10" d="M596.8,929.6c3.2,3,4.9,6.7,4.9,11.2c0,3.2-0.8,6-2.3,8.2c-1.7,2.4-4.1,4.2-7.2,5.3v0.2
				c3.2,0.8,5.9,2.6,8.1,5.3c2.4,2.9,3.6,6.3,3.6,10.2c0,5.4-1.9,9.7-5.6,13c-3.9,3.3-9.4,5-16.4,5c-7.1,0-12.5-1.7-16.4-5
				c-3.7-3.2-5.6-7.6-5.6-13c0-3.9,1.2-7.3,3.6-10.2c2.2-2.7,4.9-4.5,8.1-5.3v-0.2c-3.2-1.1-5.6-2.9-7.2-5.3
				c-1.5-2.2-2.3-4.9-2.3-8.2c0-4.4,1.6-8.2,4.9-11.2c3.6-3.3,8.5-4.9,14.9-4.9C588.2,924.6,593.3,926.2,596.8,929.6z M570.6,961
				c-2.6,2.2-3.7,5.2-3.7,8.9c0,3.6,1.2,6.6,3.7,8.8c2.6,2.3,6.4,3.5,11.3,3.5c4.9,0,8.7-1.2,11.4-3.6c2.4-2.2,3.7-5.1,3.7-8.7
				c0-3.7-1.3-6.6-3.7-8.9c-2.7-2.5-6.6-3.7-11.4-3.7C577,957.3,573.2,958.5,570.6,961z M571.8,933.6c-2.1,1.9-3.2,4.3-3.2,7.3
				c0,3.1,0.9,5.6,2.8,7.5c2.2,2.2,5.7,3.4,10.5,3.4c4.7,0,8.2-1.2,10.5-3.4c1.9-1.9,2.8-4.4,2.8-7.5c0-3-1.1-5.5-3.2-7.3
				c-2.5-2.2-5.9-3.3-10.1-3.3C577.6,930.3,574.2,931.4,571.8,933.6z"/>
			<path class="st10" d="M651.8,925.8v6.2h-29.7l-2,20.4h0.3c1.7-2,3.9-3.6,6.6-4.6c2.4-1,4.9-1.4,7.8-1.4c5.8,0,10.5,1.8,14.1,5.5
				c3.6,3.7,5.5,8.9,5.5,15.4c0,6.1-2.2,11.2-6.6,15.1c-4.1,3.7-9.2,5.5-15.2,5.5c-5.4,0-10-1.4-13.7-4.3c-4.3-3.2-6.6-7.7-7-13.2
				h6.9c0.3,3.8,1.9,6.8,4.6,8.9c2.4,1.8,5.5,2.7,9.3,2.7c4.3,0,7.8-1.4,10.6-4.1c2.7-2.7,4.2-6.2,4.2-10.5c0-4.9-1.4-8.6-3.9-11.2
				c-2.5-2.7-6-4-10.4-4c-2.9,0-5.5,0.6-7.8,1.9c-2.4,1.2-4.3,3.1-5.5,5.5h-6.6l3.2-33.6H651.8z"/>
			<path class="st10" d="M703,925.8v6.2h-29.7l-2,20.4h0.3c1.7-2,3.9-3.6,6.6-4.6c2.4-1,4.9-1.4,7.8-1.4c5.8,0,10.5,1.8,14.1,5.5
				c3.6,3.7,5.5,8.9,5.5,15.4c0,6.1-2.2,11.2-6.6,15.1c-4.1,3.7-9.2,5.5-15.2,5.5c-5.4,0-10-1.4-13.7-4.3c-4.3-3.2-6.6-7.7-7-13.2
				h6.9c0.3,3.8,1.9,6.8,4.6,8.9c2.4,1.8,5.5,2.7,9.3,2.7c4.3,0,7.8-1.4,10.6-4.1c2.7-2.7,4.2-6.2,4.2-10.5c0-4.9-1.4-8.6-3.9-11.2
				c-2.5-2.7-6-4-10.4-4c-2.9,0-5.5,0.6-7.8,1.9c-2.4,1.2-4.3,3.1-5.5,5.5h-6.6l3.2-33.6H703z"/>
		</g>
	</g>
</g>
</svg>
