<?xml version="1.0" encoding="utf-8"?>
<!-- Generator: Adobe Illustrator 19.0.0, SVG Export Plug-In . SVG Version: 6.00 Build 0)  -->
<svg version="1.1" id="图层_1" xmlns="http://www.w3.org/2000/svg" xmlns:xlink="http://www.w3.org/1999/xlink" x="0px" y="0px"
	 viewBox="0 0 1024 1024" style="enable-background:new 0 0 1024 1024;" xml:space="preserve">
<style type="text/css">
	.st0{fill:#CACACA;}
	.st1{fill:#8D8D8D;}
	.st2{fill:#F8F8F8;}
</style>
<g id="XMLID_13_">
	<circle id="XMLID_10_" class="st0" cx="512" cy="512" r="512"/>
	<path id="XMLID_12_" class="st1" d="M768.5,259H255.5c-37.5,0-67.8,30.4-67.8,67.8v580.1c88.5,73.3,201.9,117.1,325.8,117.1
		c122.4,0,234.6-43,322.7-114.5V326.9C836.3,289.4,805.9,259,768.5,259z"/>
	<g id="XMLID_1_">
		<path id="XMLID_4_" class="st0" d="M639.5,378.7H452c-9.3,0-16.7-7.4-16.7-16.7v-19c0-9.3,7.4-16.7,16.7-16.7h187.7
			c9.3,0,16.7,7.4,16.7,16.7v19C656.3,371.3,648.8,378.7,639.5,378.7z"/>
		<path id="XMLID_3_" class="st0" d="M397.9,378.7h-9.3c-11.5,0-20.9-9.4-20.9-20.9v-10.4c0-11.5,9.4-20.9,20.9-20.9h9.3
			c11.5,0,20.9,9.4,20.9,20.9v10.4C418.9,369.4,409.5,378.7,397.9,378.7z"/>
	</g>
	<path id="XMLID_11_" class="st2" d="M759.8,417.5H264.2c-14.1,0-25.5,11.4-25.5,25.5v500.7c79.5,50.9,174.1,80.3,275.4,80.3
		c99.5,0,192.5-28.5,271.1-77.6V443C785.3,428.9,773.8,417.5,759.8,417.5z"/>
	<g id="XMLID_2_">
		<rect id="XMLID_9_" x="285.6" y="466.2" class="st0" width="444.1" height="26.4"/>
		<rect id="XMLID_8_" x="285.6" y="530.3" class="st0" width="444.1" height="26.4"/>
		<rect id="XMLID_7_" x="285.6" y="583.5" class="st0" width="444.1" height="26.4"/>
		<rect id="XMLID_6_" x="285.6" y="652.2" class="st0" width="207.2" height="202.3"/>
		<rect id="XMLID_5_" x="528.3" y="652.2" class="st0" width="201.4" height="202.3"/>
	</g>
</g>
</svg>
