<?xml version="1.0" encoding="utf-8"?>
<!-- Generator: Adobe Illustrator 19.0.0, SVG Export Plug-In . SVG Version: 6.00 Build 0)  -->
<svg version="1.1" id="图层_1" xmlns="http://www.w3.org/2000/svg" xmlns:xlink="http://www.w3.org/1999/xlink" x="0px" y="0px"
	 viewBox="0 0 1024 1024" style="enable-background:new 0 0 1024 1024;" xml:space="preserve">
<style type="text/css">
	.st0{fill:#67C5F4;}
	.st1{fill:#454551;}
	.st2{fill:#A2A0A0;}
	.st3{fill:#DBDBDB;}
	.st4{fill:#ECECEC;}
</style>
<g id="XMLID_14_">
	<circle id="XMLID_28_" class="st0" cx="512" cy="512" r="512"/>
	<path id="XMLID_35_" class="st1" d="M548.9,136.8H475c-101.5,0-183.7,82.3-183.7,183.7v182.6c0,101.5,82.3,183.7,183.7,183.7h73.9
		c101.5,0,183.7-82.3,183.7-183.7V320.5C732.7,219.1,650.4,136.8,548.9,136.8z M663,479.7c0,64.9-52.7,117.6-117.6,117.6h-66.9
		c-64.9,0-117.6-52.7-117.6-117.6V319.1c0-64.9,52.7-117.6,117.6-117.6h66.9c64.9,0,117.6,52.7,117.6,117.6V479.7z"/>
	<path id="XMLID_32_" class="st2" d="M204.3,749.4v15c0,48.2,39.1,87.3,87.3,87.3h440.7c48.2,0,87.3-39.1,87.3-87.3v-15H204.3z"/>
	<path id="XMLID_54_" class="st3" d="M819.7,749.4V491.5c0-75.4-61.1-136.6-136.6-136.6H340.9c-75.4,0-136.6,61.1-136.6,136.6v257.8
		H819.7z"/>
	<rect id="XMLID_29_" x="274.2" y="408.1" class="st4" width="152" height="19.1"/>
	<rect id="XMLID_31_" x="461.1" y="408.1" class="st4" width="69.7" height="19.1"/>
	<path id="XMLID_42_" class="st4" d="M564.6,570.4c0-29-23.5-52.6-52.6-52.6c-29,0-52.6,23.5-52.6,52.6c0,23.3,15.2,43.2,36.3,50.1
		v44.5c0,9,7.3,16.2,16.2,16.2c9,0,16.2-7.3,16.2-16.2v-44.5C549.4,613.6,564.6,593.8,564.6,570.4z"/>
	<rect id="XMLID_37_" x="647.1" y="681.3" class="st2" width="155.5" height="35.3"/>
	<rect id="XMLID_39_" x="647.1" y="616.1" class="st2" width="155.5" height="35.3"/>
	<rect id="XMLID_40_" x="647.1" y="552.8" class="st2" width="155.5" height="35.3"/>
</g>
</svg>
