<?xml version="1.0" encoding="utf-8"?>
<!-- Generator: Adobe Illustrator 19.0.0, SVG Export Plug-In . SVG Version: 6.00 Build 0)  -->
<svg version="1.1" id="图层_1" xmlns="http://www.w3.org/2000/svg" xmlns:xlink="http://www.w3.org/1999/xlink" x="0px" y="0px"
	 viewBox="0 0 1024 1024" style="enable-background:new 0 0 1024 1024;" xml:space="preserve">
<style type="text/css">
	.st0{fill:#CACACA;}
	.st1{fill:#8D8D8D;}
	.st2{fill:#5E5E5E;}
</style>
<g id="XMLID_57_">
	<circle id="XMLID_113_" class="st0" cx="512" cy="512" r="512"/>
	<polygon id="XMLID_83_" class="st1" points="722.1,826.5 700.6,733.4 618.1,728.2 613.7,665.5 549.8,663.5 459,577.6 567.5,462.9 
		819.9,701.7 819.3,832.5 	"/>
	<polygon id="XMLID_82_" class="st2" points="722.1,826.5 819.3,832.5 819.4,809.4 513.5,519.9 459,577.6 549.8,663.5 613.7,665.5 
		618.1,728.2 700.6,733.4 	"/>
	<path id="XMLID_76_" class="st1" d="M377.3,150.7c-125.4,0-227,101.6-227,227s101.6,226.9,227,226.9s227-101.6,227-227
		S502.6,150.7,377.3,150.7z M327.2,393.8c-36.5,0-66.1-29.6-66.1-66.1s29.6-66.1,66.1-66.1s66.1,29.6,66.1,66.1
		S363.7,393.8,327.2,393.8z"/>
	<path id="XMLID_73_" class="st2" d="M377.3,150.7c-125.4,0-227,101.6-227,227s101.6,226.9,227,226.9s227-101.6,227-227
		S502.6,150.7,377.3,150.7z M377.3,580.5c-112,0-202.9-90.9-202.9-202.9s90.9-202.9,202.9-202.9s202.9,90.9,202.9,202.9
		S489.3,580.5,377.3,580.5z"/>
	<path id="XMLID_70_" class="st2" d="M327.2,239.9c-48.6,0-87.9,39.3-87.9,87.9s39.3,87.9,87.9,87.9s87.9-39.3,87.9-87.9
		S375.8,239.9,327.2,239.9z M327.2,393.8c-36.5,0-66.1-29.6-66.1-66.1s29.6-66.1,66.1-66.1s66.1,29.6,66.1,66.1
		S363.7,393.8,327.2,393.8z"/>
</g>
</svg>
