<?xml version="1.0" encoding="utf-8"?>
<!-- Generator: Adobe Illustrator 19.0.0, SVG Export Plug-In . SVG Version: 6.00 Build 0)  -->
<svg version="1.1" id="图层_1" xmlns="http://www.w3.org/2000/svg" xmlns:xlink="http://www.w3.org/1999/xlink" x="0px" y="0px"
	 viewBox="0 0 1024 1024" style="enable-background:new 0 0 1024 1024;" xml:space="preserve">
<style type="text/css">
	.st0{fill:#CACACA;}
	.st1{fill:#8D8D8D;}
	.st2{fill:#5E5E5E;}
	.st3{fill:#F8F8F8;}
	.st4{fill:#CBCBCB;}
	.st5{fill:#FFFFFF;}
</style>
<g id="XMLID_90_">
	<circle id="XMLID_100_" class="st0" cx="512" cy="512" r="512"/>
	<path id="XMLID_99_" class="st1" d="M430.5,1017.6c26.5,4.2,53.8,6.4,81.5,6.4c36.8,0,72.8-3.9,107.4-11.3V734.8H430.5V1017.6z"/>
	<rect id="XMLID_98_" x="430.5" y="734.8" class="st2" width="189" height="105.5"/>
	<path id="XMLID_97_" class="st1" d="M764.3,296.1H325.5c-79.6,0-144.2,64.5-144.2,144.2v313.3h727V440.3
		C908.4,360.6,843.9,296.1,764.3,296.1z"/>
	<path id="XMLID_96_" class="st2" d="M330,296.1L330,296.1c-95,0-172,77-172,172v285.5h343.8V468.1
		C501.9,373.1,424.9,296.1,330,296.1z"/>
	<rect id="XMLID_95_" x="55.8" y="413.9" class="st3" width="420.8" height="271.4"/>
	<polygon id="XMLID_87_" class="st4" points="266.2,615.4 476.6,413.9 55.8,413.9 	"/>
	<polygon id="XMLID_94_" class="st5" points="266.2,604.1 476.6,413.9 55.8,413.9 	"/>
	<path id="XMLID_93_" class="st2" d="M860,173.2H747.6c-18.4,0-33.3,14.9-33.3,33.3V517c0,18.4,14.9,33.3,33.3,33.3
		s33.3-14.9,33.3-33.3V258.1h79.1c23.5,0,42.4-19,42.4-42.4S883.5,173.2,860,173.2z"/>
</g>
</svg>
