<?xml version="1.0" encoding="utf-8"?>
<!-- Generator: Adobe Illustrator 19.0.0, SVG Export Plug-In . SVG Version: 6.00 Build 0)  -->
<svg version="1.1" id="图层_1" xmlns="http://www.w3.org/2000/svg" xmlns:xlink="http://www.w3.org/1999/xlink" x="0px" y="0px"
	 viewBox="0 0 1024 1024" style="enable-background:new 0 0 1024 1024;" xml:space="preserve">
<style type="text/css">
	.st0{fill:#0093F1;}
</style>
<g>
	<path id="XMLID_351_" class="st0" d="M745.8,567.9c-24.6-68.2-99-92.2-99-92.2c12.9-4.3,49.2-38.7,57.2-52.9
		c8-14.1,21.5-69.5-12.9-115.5c-34.4-46.1-106.9-52.9-106.9-52.9v-87.3h-52.9v83.6h-91.6v-83.6h-52.2v89.1l-117.4,2.5v39.9
		c2.3,0,10.4,0,35.6,0c44.9,0,52.2,9.8,52.2,9.8s0,390.3,0,409.3c0,19.1-59.6,23.4-59.6,23.4s-20.9-4.9-21.5,15.4
		c-0.6,20.3,14.8,22.7,14.8,22.7h95.3v77.4h53.5v-78.7h91v78.7h53.5v-83c9.8,0,68.8-12.3,109.4-43.6
		C734.7,698.8,770.4,636.1,745.8,567.9z M454.5,295c0,0,111.9-11.7,149.3,31.3c37.5,43,0,121.7-35,134c-35,12.3-40.6,11.1-62.7,11.7
		c-22.1,0.6-51.6,0-51.6,0V295z M653,624.5c-3.1,56.5-41,105.7-99.2,108.8c-58.2,3.1-89.5-13.5-99.3-30.7V518.9
		c0,0,75.6-6.3,117.4,3.5C613.7,532.3,656.1,567.9,653,624.5z"/>
	<path id="XMLID_1_" class="st0" d="M512,0C229.2,0,0,229.2,0,512s229.2,512,512,512s512-229.2,512-512S794.8,0,512,0z M512,969.8
		c-252.8,0-457.8-205-457.8-457.8S259.2,54.2,512,54.2s457.8,205,457.8,457.8S764.8,969.8,512,969.8z"/>
</g>
</svg>
