<?xml version="1.0" encoding="utf-8"?>
<!-- Generator: Adobe Illustrator 19.0.0, SVG Export Plug-In . SVG Version: 6.00 Build 0)  -->
<svg version="1.1" id="图层_1" xmlns="http://www.w3.org/2000/svg" xmlns:xlink="http://www.w3.org/1999/xlink" x="0px" y="0px"
	 viewBox="214 -92.1 1024 1024" style="enable-background:new 214 -92.1 1024 1024;" xml:space="preserve">
<style type="text/css">
	.st0{fill:#FFFFFF;}
</style>
<g>
	<g id="XMLID_345_">
		<polygon id="XMLID_328_" class="st0" points="725.5,802.5 513.1,470.4 726,613.3 938.9,476.3 		"/>
		<polygon id="XMLID_346_" class="st0" points="725.5,569.9 513.1,433.9 726,37.3 938.9,439.8 		"/>
		<polygon id="XMLID_348_" class="st0" points="938.9,439.8 726,350.1 513.1,433.9 725.5,569.9 		"/>
		<polygon id="XMLID_354_" class="st0" points="726,37.3 725.5,569.9 938.9,439.8 		"/>
		<polygon id="XMLID_353_" class="st0" points="726,350.1 725.7,350.3 725.5,569.9 938.9,439.8 		"/>
		<polygon id="XMLID_357_" class="st0" points="726,613.3 725.5,802.5 938.9,476.3 		"/>
	</g>
	<path id="XMLID_360_" class="st0" d="M726-92.1c-282.8,0-512,229.2-512,512s229.2,512,512,512s512-229.2,512-512
		S1008.8-92.1,726-92.1z M726,877.7c-252.8,0-457.8-205-457.8-457.8S473.2-37.9,726-37.9s457.8,205,457.8,457.8
		S978.8,877.7,726,877.7z"/>
</g>
</svg>
