<?xml version="1.0" encoding="utf-8"?>
<!-- Generator: Adobe Illustrator 19.0.0, SVG Export Plug-In . SVG Version: 6.00 Build 0)  -->
<svg version="1.1" id="图层_1" xmlns="http://www.w3.org/2000/svg" xmlns:xlink="http://www.w3.org/1999/xlink" x="0px" y="0px"
	 viewBox="214 -92.1 1024 1024" style="enable-background:new 214 -92.1 1024 1024;" xml:space="preserve">
<style type="text/css">
	.st0{fill:#FFFFFF;}
</style>
<g>
	<path id="XMLID_1_" class="st0" d="M726-92.1c-282.8,0-512,229.2-512,512s229.2,512,512,512s512-229.2,512-512
		S1008.8-92.1,726-92.1z M726,877.7c-252.8,0-457.8-205-457.8-457.8S473.2-37.9,726-37.9s457.8,205,457.8,457.8
		S978.8,877.7,726,877.7z"/>
	<g id="XMLID_367_">
		<path id="XMLID_376_" class="st0" d="M933.5,427.1L725.2,37.3L507.3,441.1l219.4,135.5L941,441.1l-0.5-1L933.5,427.1z
			 M720.8,337.4l-192.2,82.2L720.8,63.4V337.4z M729.3,336.1v-273l191.5,358.4L729.3,336.1z"/>
		<path id="XMLID_386_" class="st0" d="M933.5,427.1L725.2,37.3l-0.2,0.3v538l1.7,1L941,441.1l-0.5-1L933.5,427.1z M729.3,336.1
			v-273l191.5,358.4L729.3,336.1z"/>
		<polygon id="XMLID_371_" class="st0" points="941,441.1 726.7,489.8 507.3,441.1 726.7,576.6 		"/>
		<path id="XMLID_381_" class="st0" d="M725.2,615L523.4,479.4l201.9,323.1l219.4-333.9L725.2,615z M914.8,498.8l-185.5,282V622.4
			L914.8,498.8z M720.8,622.3v157L552,508.8L720.8,622.3z"/>
		<path id="XMLID_383_" class="st0" d="M725.9,801.6l218.8-333L725.9,614.5V801.6z M914.8,498.8l-185.5,282V622.4L914.8,498.8z"/>
	</g>
</g>
</svg>
