<?xml version="1.0" encoding="utf-8"?>
<!-- Generator: Adobe Illustrator 19.0.0, SVG Export Plug-In . SVG Version: 6.00 Build 0)  -->
<svg version="1.1" id="图层_1" xmlns="http://www.w3.org/2000/svg" xmlns:xlink="http://www.w3.org/1999/xlink" x="0px" y="0px"
	 viewBox="0 307.8 1024 408.5" style="enable-background:new 0 307.8 1024 408.5;" xml:space="preserve">
<style type="text/css">
	.st0{fill:#0080CA;}
	.st1{fill:#414240;}
</style>
<g id="XMLID_1526_">
	<path id="XMLID_1586_" class="st0" d="M200,307.8C89.5,307.8,0,399.1,0,512c0,112.7,89.5,204.2,200,204.2S400,624.9,400,512
		C400,399.3,310.5,307.8,200,307.8z M218.1,546.6c5.3,4.9,8.6,12,8.6,19.9c0,15-11.9,27.1-26.5,27.1c-7.7,0-14.6-3.3-19.4-8.7
		c-9.1-8-20.9-12.8-34-12.8c-12.9,0-24.8,4.8-34,12.8c-0.6,0.6-1,1.1-1.6,1.6c-4.7,4.3-11,7.1-17.8,7.1s-13.2-2.6-17.8-7.1
		c-1.3-1.1-2.4-2.4-3.4-3.9c-0.2-0.3-0.5-0.7-0.7-1c-0.5-0.7-0.9-1.5-1.4-2.3c-0.8-1.5-1.5-3.2-2.1-4.9c-0.8-2.5-1.1-5.3-1.1-8.1
		l0,0c0-2.9,0.5-5.5,1.1-8.1c0.6-1.7,1.1-3.3,2.1-4.9c0.5-0.8,0.8-1.5,1.4-2.3c0.2-0.3,0.5-0.7,0.7-1c0.5-0.7,1-1.4,1.6-2.1
		c0.7-0.8,1.5-1.6,2.4-2.4l0,0c7.5-9.1,12-21,12-34s-4.5-24.7-12-34c-5.7-4.9-9.3-12.3-9.3-20.6c0-15,11.9-27.1,26.5-27.1
		s26.5,12.1,26.5,27.1c0,7.9-3.3,15-8.6,19.9c-7.9,9.3-12.6,21.4-12.6,34.6c0,13.3,4.7,25.3,12.6,34.6c0.6,0.6,1.1,1,1.6,1.7
		c0.1,0.2,0.3,0.3,0.5,0.6c9,7.7,20.6,12.2,33.3,12.2c12.7,0,24.2-4.6,33.3-12.2c0.9-1,1.8-2.1,2.9-3l0,0c7.5-9.1,12-21,12-34
		s-4.5-24.7-12-34c-5.7-4.9-9.3-12.3-9.3-20.6c0-15,11.9-27.1,26.5-27.1c14.6,0,26.5,12.1,26.5,27.1c0,7.9-3.3,15-8.6,19.9
		c-7.9,9.3-12.6,21.4-12.6,34.6C205.5,525.3,210.2,537.3,218.1,546.6z M253.4,539.1c-14.6,0-26.5-12.1-26.5-27.1
		s11.9-27.1,26.5-27.1c14.6,0,26.5,12.1,26.5,27.1C279.9,527,268,539.1,253.4,539.1z M324.9,546.6c0.6,0.6,1.1,1,1.6,1.7
		c0.6,0.7,1.1,1.3,1.6,2.1c0.2,0.3,0.5,0.7,0.7,1c0.5,0.7,0.9,1.5,1.4,2.3c0.8,1.5,1.5,3.2,2.1,4.9c0.8,2.5,1.1,5.3,1.1,8.1l0,0
		c0,2.9-0.5,5.5-1.1,8.1c-0.6,1.7-1.1,3.3-2.1,4.9c-0.5,0.8-0.8,1.5-1.4,2.3c-0.2,0.3-0.5,0.7-0.7,1c-1,1.4-2.2,2.6-3.4,3.9
		c-4.7,4.3-11,7.1-17.8,7.1s-13.2-2.6-17.8-7.1c-1.3-1.1-2.4-2.4-3.4-3.9c-0.2-0.3-0.5-0.7-0.7-1c-0.5-0.7-0.9-1.5-1.4-2.3
		c-0.8-1.5-1.5-3.2-2.1-4.9c-0.8-2.5-1.1-5.3-1.1-8.1l0,0c0-2.9,0.5-5.5,1.1-8.1c0.6-1.7,1.1-3.3,2.1-4.9c0.5-0.8,0.8-1.5,1.4-2.3
		c0.2-0.3,0.5-0.7,0.7-1c0.5-0.7,1-1.4,1.6-2.1c0.7-0.8,1.5-1.6,2.4-2.4c7.5-9.1,12-21,12-34c0-12.9-4.5-24.7-12-34
		c-5.7-4.9-9.3-12.3-9.3-20.6c0-15,11.9-27.1,26.5-27.1c14.6,0,26.5,12.1,26.5,27.1c0,7.9-3.3,15-8.6,19.9
		c-7.9,9.3-12.6,21.4-12.6,34.6C312.3,525.3,317,537.3,324.9,546.6z"/>
	<g id="XMLID_1527_">
		<g id="XMLID_1577_">
			<rect id="XMLID_1585_" x="855.9" y="347.7" class="st1" width="168.1" height="26.6"/>
			<path id="XMLID_1584_" class="st1" d="M855.9,428.4h124V559h-124v26.6h137c7.2,0,13-5.9,13-13.4V428.4h18v-26.6H855.8v26.6H855.9
				z"/>
			<polygon id="XMLID_1583_" class="st1" points="770.9,428.4 793.6,428.4 793.6,585.8 819.8,585.8 819.8,428.4 842.5,428.4 
				842.5,401.8 770.9,401.8 			"/>
			<path id="XMLID_1582_" class="st1" d="M816.3,357.7h-45.5v26.6h58.7c7.2,0,13-5.9,13-13.4v-37.3h-26.2V357.7z"/>
			<path id="XMLID_1581_" class="st1" d="M694.3,522.6h47.2V496h-47.2v-30.3h47.2V439h-47.2v-36.1h-26.2V439h-28.7l19.1-54.7h82.9
				v-26.6h-73.5l8.3-23.8h-27.8l-8.3,23.8h-29.8v26.6h20.6L608.6,448c-1.5,4.1-0.8,8.6,1.6,12.1c2.4,3.5,6.4,5.6,10.6,5.6H668V496
				h-57.9v26.6H668V559h-71.2V419.3h-26.2v153.1c0,7.3,5.8,13.4,13,13.4h160.9v-26.6H694v-36.5H694.3z"/>
			<rect id="XMLID_1580_" x="570.8" y="357.5" class="st1" width="26.2" height="44.3"/>
			<path id="XMLID_1579_" class="st1" d="M491.7,428.4h16.7v40h-16.7v26.6h16.7v77.2c0,7.3,5.8,13.4,13,13.4h35.9V559h-22.9v-63.9
				h22.9v-26.6h-22.9v-40h22.9v-26.6h-65.6L491.7,428.4L491.7,428.4z"/>
			<path id="XMLID_1578_" class="st1" d="M531.7,333.8h-27.8l-11.4,32.6c-1.5,4.1-0.8,8.6,1.6,12.1c2.4,3.5,6.4,5.6,10.6,5.6h52.6
				v-26.6h-34.1L531.7,333.8z"/>
		</g>
		<g id="XMLID_1528_">
			<path id="XMLID_1575_" class="st1" d="M503.7,689.4v-57.3h14.4v45.9h25.3v11.4H503.7z"/>
			<path id="XMLID_1534_" class="st1" d="M644,689.4v-23.1h-20.6v23.1H609v-57.3h14.4v22.8H644v-22.8h14.4v57.3H644z"/>
			<path id="XMLID_1532_" class="st1" d="M741.3,678.1l-3.4,11.2h-15l19.4-57.3h19.2l19.6,57.3h-15l-3.4-11.2l-3.4-10.7l-7.3-24
				l-7.3,24L741.3,678.1z"/>
			<path id="XMLID_1530_" class="st1" d="M859.5,651.6v37.6h-13.7v-57.2h17.6l20.9,39.5v-39.5H898v57.3h-17.7L859.5,651.6z"/>
			<path id="XMLID_1529_" class="st1" d="M989.9,642.9c4.6,0,16.5,0.6,22.1,1.4v-11.5c-5.8-0.8-15.3-1.5-22.1-1.5
				c-15.6,0-23.3,7-23.3,17.5v23.9c0,10.4,7.9,17.5,23.3,17.5c7.3,0,15-0.9,22.1-2.7v-26.9h-13.5V678c-3.8,0.5-5.6,0.6-8.6,0.6
				c-7.2,0-9-3.7-9-8.1v-19.7C980.9,646.2,982.7,642.9,989.9,642.9z"/>
		</g>
	</g>
</g>
</svg>
