<?xml version="1.0" encoding="utf-8"?>
<!-- Generator: Adobe Illustrator 19.0.0, SVG Export Plug-In . SVG Version: 6.00 Build 0)  -->
<svg version="1.1" id="图层_1" xmlns="http://www.w3.org/2000/svg" xmlns:xlink="http://www.w3.org/1999/xlink" x="0px" y="0px"
	 viewBox="0 0 1024 1024" style="enable-background:new 0 0 1024 1024;" xml:space="preserve">
<style type="text/css">
	.st0{fill:#0093F1;}
</style>
<g>
	<path id="XMLID_355_" class="st0" d="M279.4,360.8l46-148.2c0,0,4.7-11.3,20.6-8.4c15.9,2.8,15,14.1,15,18.8s-5,23.1,10.6,23.1
		c15.6,0,116.9,0,116.9,0v-97.2h53.8v95.4h170.4c0,0,10.9-0.3,12.8,12.8c1.9,13.1,2.5,14.1-18.1,44.1
		c-20.6,30-306.1,428.4-306.1,428.4h206.4c0,0,86.6-3.4,96.6-72.9l4.1-40.3c0,0,1.9-10.6,16.3-10.6c14.4,0,22.5,6.3,22.5,13.8
		c0,7.5,0,158.2,0,158.2H542.7v97.6h-54.4v-97.6H297.2c0,0-19.7,0.9-20.3-11.6c-0.6-12.5,1.3-15,7.2-24.1
		C290,732.9,603,293.6,603,293.6s0-6.4-6.6-6.4c-6.6,0-188.1,2.8-188.1,2.8s-43.6-0.9-68.5,36.1s-19.7,28.6-24.9,37.1
		c-5.2,8.4-9.6,19.2-25.3,15.9C274,375.8,279.4,360.8,279.4,360.8z"/>
	<path id="XMLID_360_" class="st0" d="M512,0C229.2,0,0,229.2,0,512s229.2,512,512,512s512-229.2,512-512S794.8,0,512,0z M512,969.8
		c-252.8,0-457.8-205-457.8-457.8S259.2,54.2,512,54.2s457.8,205,457.8,457.8S764.8,969.8,512,969.8z"/>
</g>
</svg>
