<?xml version="1.0" encoding="utf-8"?>
<!-- Generator: Adobe Illustrator 19.0.0, SVG Export Plug-In . SVG Version: 6.00 Build 0)  -->
<svg version="1.1" id="图层_1" xmlns="http://www.w3.org/2000/svg" xmlns:xlink="http://www.w3.org/1999/xlink" x="0px" y="0px"
	 viewBox="214 -92.1 1024 1024" style="enable-background:new 214 -92.1 1024 1024;" xml:space="preserve">
<style type="text/css">
	.st0{fill:#FFFFFF;}
</style>
<g>
	<path id="XMLID_355_" class="st0" d="M493.4,268.7l46-148.2c0,0,4.7-11.3,20.6-8.4c15.9,2.8,15,14.1,15,18.8s-5,23.1,10.6,23.1
		c15.6,0,116.9,0,116.9,0V56.8h53.8v95.4h170.4c0,0,10.9-0.3,12.8,12.8c1.9,13.1,2.5,14.1-18.1,44.1S615.3,637.5,615.3,637.5h206.4
		c0,0,86.6-3.4,96.6-72.9l4.1-40.3c0,0,1.9-10.6,16.3-10.6c14.4,0,22.5,6.3,22.5,13.8s0,158.2,0,158.2H756.7v97.6h-54.4v-97.6H511.2
		c0,0-19.7,0.9-20.3-11.6c-0.6-12.5,1.3-15,7.2-24.1C504,640.8,817,201.5,817,201.5s0-6.4-6.6-6.4s-188.1,2.8-188.1,2.8
		s-43.6-0.9-68.5,36.1c-24.9,37-19.7,28.6-24.9,37.1c-5.2,8.4-9.6,19.2-25.3,15.9C488,283.7,493.4,268.7,493.4,268.7z"/>
	<path id="XMLID_360_" class="st0" d="M726-92.1c-282.8,0-512,229.2-512,512s229.2,512,512,512s512-229.2,512-512
		S1008.8-92.1,726-92.1z M726,877.7c-252.8,0-457.8-205-457.8-457.8S473.2-37.9,726-37.9s457.8,205,457.8,457.8
		S978.8,877.7,726,877.7z"/>
</g>
</svg>
